<svg viewBox="-768 -367.5 1536 735" width="1536" height="735" style="background-color: rgb(255, 255, 255);" xmlns="http://www.w3.org/2000/svg"><path d="M-223.4747793229085,-12.747637112823979L-233.50834912394097,-14.919467636971348M-233.50834912394097,-110.73613497183541L-233.50834912394097,-14.919467636971348M-233.50834912394097,-14.919467636971348L-315.8591483845456,-8.177982707458376" style="fill:none;stroke:rgb(0,0,0);stroke-width:1;stroke-linecap:round"></path><path d="M-223.4747793229085,-12.747637112823979L-233.50834912394097,-14.919467636971348L-233.50834912394097,-110.73613497183538z" style="fill:rgb(238,238,238); fill-opacity: 0.4"></path><path d="M-223.4747793229085,-108.564304447688L-233.50834912394097,-110.73613497183541M-233.50834912394097,-110.73613497183541L-315.8591483845456,-103.9946500423224M-223.4747793229085,-108.564304447688L-223.4747793229085,-12.747637112823979M-223.4747793229085,-12.747637112823979L-305.8255785835131,-6.006152183310995M-251.08009393407303,-16.875760910515886L-261.11366373510555,-19.047591434663257M-261.11366373510555,-25.959302955596804L-261.11366373510555,-19.047591434663257M-261.11366373510555,-19.047591434663257L-267.0540182041083,-18.561296092197715M-251.08009393407303,-23.787472431449437L-261.11366373510555,-25.959302955596804M-261.11366373510555,-25.959302955596804L-267.0540182041083,-25.473007613131266" style="fill:none;stroke:rgb(0,0,0);stroke-width:1;stroke-linecap:round"></path><path d="M-223.4747793229085,-108.564304447688L-223.4747793229085,-12.747637112823979L-233.50834912394097,-110.73613497183538z" style="fill:rgb(238,238,238); fill-opacity: 0.4"></path><path d="M-261.11366373510555,-25.959302955596804L-261.11366373510555,-19.047591434663257L-267.0540182041083,-25.473007613131266zM-261.11366373510555,-19.047591434663257L-267.0540182041083,-18.561296092197715L-267.0540182041083,-25.473007613131266z" style="fill:rgb(153,221,255); fill-opacity: 0.4"></path><path d="M-267.0540182041083,-25.473007613131266L-267.0540182041083,-18.561296092197715M-267.0540182041083,-18.561296092197715L-257.02044840307576,-16.389465568050344" style="fill:none;stroke:rgb(0,0,0);stroke-width:1;stroke-linecap:round"></path><path d="M-315.8591483845456,-8.177982707458371L-233.50834912394097,-14.919467636971348L-223.4747793229085,-12.747637112823979z" style="fill:rgb(238,238,238); fill-opacity: 0.4"></path><path d="M-267.0540182041083,-25.473007613131266L-257.02044840307576,-23.30117708898389" style="fill:none;stroke:rgb(0,0,0);stroke-width:1;stroke-linecap:round"></path><path d="M-251.08009393407303,-16.875760910515883L-261.11366373510555,-19.047591434663257L-261.11366373510555,-25.959302955596804zM-267.0540182041083,-18.561296092197715L-261.11366373510555,-19.047591434663257L-251.08009393407303,-16.875760910515883z" style="fill:rgb(153,221,255); fill-opacity: 0.4"></path><path d="M-233.50834912394097,-110.73613497183538L-233.50834912394097,-14.919467636971348L-315.8591483845456,-103.9946500423224z" style="fill:rgb(238,238,238); fill-opacity: 0.4"></path><path d="M-267.0540182041083,-25.473007613131266L-257.02044840307576,-23.301177088983895L-261.11366373510555,-25.959302955596804zM-267.0540182041083,-25.473007613131266L-267.0540182041083,-18.561296092197715L-257.02044840307576,-23.301177088983895z" style="fill:rgb(153,221,255); fill-opacity: 0.4"></path><path d="M-223.4747793229085,-108.564304447688L-305.8255785835131,-101.82281951817505" style="fill:none;stroke:rgb(0,0,0);stroke-width:1;stroke-linecap:round"></path><path d="M-251.08009393407303,-23.787472431449437L-251.08009393407303,-16.875760910515883L-261.11366373510555,-25.959302955596804zM-257.02044840307576,-23.301177088983895L-251.08009393407303,-23.787472431449437L-261.11366373510555,-25.959302955596804zM-257.02044840307576,-16.389465568050344L-267.0540182041083,-18.561296092197715L-251.08009393407303,-16.875760910515883zM-267.0540182041083,-18.561296092197715L-257.02044840307576,-16.389465568050344L-257.02044840307576,-23.301177088983895z" style="fill:rgb(153,221,255); fill-opacity: 0.4"></path><path d="M-251.08009642572998,-23.787473605627206L-251.08009642572998,-16.87576208469365M-251.08009642572998,-16.87576208469365L-257.0204508947327,-16.38946674222811M-251.08009642572998,-16.87576208469365L-237.10936462251703,-20.784292354910022M-251.08009393407303,-23.787472431449437L-251.08009393407303,-16.875760910515886M-251.08009393407303,-16.875760910515886L-257.02044840307576,-16.389465568050344M-251.08009642572998,-23.787473605627206L-257.0204508947327,-23.30117826316166M-251.08009642572998,-23.787473605627206L-237.10936462251703,-20.784292354910022M-251.08009393407303,-23.787472431449437L-257.02044840307576,-23.30117708898389" style="fill:none;stroke:rgb(0,0,0);stroke-width:1;stroke-linecap:round"></path><path d="M-251.0800940246449,-23.787472451054292L-251.0800940246449,-16.87576093012074L-257.0204484936476,-16.3894655876552z" style="fill:rgb(255,187,187); fill-opacity: 0.4"></path><path d="M-257.02044840307576,-16.389465568050344L-251.08009393407303,-16.875760910515883L-251.08009393407303,-23.787472431449437z" style="fill:rgb(153,221,255); fill-opacity: 0.4"></path><path d="M-251.0800940246449,-23.787472451054292L-257.0204484936476,-16.3894655876552L-257.0204484936476,-23.301177108588753z" style="fill:rgb(255,187,187); fill-opacity: 0.4"></path><path d="M-257.02044840307576,-23.301177088983895L-257.02044840307576,-16.389465568050344L-251.08009393407303,-23.787472431449437z" style="fill:rgb(153,221,255); fill-opacity: 0.4"></path><path d="M-305.8255785835131,-6.006152183311002L-223.4747793229085,-12.747637112823979L-223.4747793229085,-108.564304447688z" style="fill:rgb(238,238,238); fill-opacity: 0.4"></path><path d="M-257.0204508947327,-16.38946674222811L-257.0204508947327,-23.30117826316166M-257.0204508947327,-16.38946674222811L-237.10936462251703,-20.784292354910022M-257.02044840307576,-23.30117708898389L-257.02044840307576,-16.389465568050344" style="fill:none;stroke:rgb(0,0,0);stroke-width:1;stroke-linecap:round"></path><path d="M-233.50834912394097,-14.919467636971348L-315.8591483845456,-8.177982707458371L-315.8591483845456,-103.9946500423224z" style="fill:rgb(238,238,238); fill-opacity: 0.4"></path><path d="M-257.0204508947327,-23.30117826316166L-237.10936462251703,-20.784292354910022" style="fill:none;stroke:rgb(0,0,0);stroke-width:1;stroke-linecap:round"></path><path d="M-305.8255785835131,-101.82281951817505L-223.4747793229085,-108.564304447688L-233.50834912394097,-110.73613497183538zM-305.8255785835131,-6.006152183311002L-315.8591483845456,-8.177982707458371L-223.4747793229085,-12.747637112823979z" style="fill:rgb(238,238,238); fill-opacity: 0.4"></path><path d="M-251.0800940246449,-16.87576093012074L-251.0800940246449,-23.787472451054292L-237.1093624299976,-20.78429333187497zM-257.0204484936476,-16.3894655876552L-251.0800940246449,-16.87576093012074L-237.1093624299976,-20.78429333187497zM-251.0800940246449,-23.787472451054292L-257.0204484936476,-23.301177108588753L-237.1093624299976,-20.78429333187497zM-257.0204484936476,-23.301177108588753L-257.0204484936476,-16.3894655876552L-237.1093624299976,-20.78429333187497z" style="fill:rgb(255,187,187); fill-opacity: 0.4"></path><path d="M-172.3729429456749,-6.139431538054564L-210.35580695438483,-14.361066019549478M-210.35580695438483,-98.20064828967507L-210.35580695438483,-14.361066019549478M-210.35580695438483,-14.361066019549478L-282.412754891123,-8.46226682216747M-315.8591483845456,-103.9946500423224L-315.8591483845456,-8.177982707458376M-315.8591483845456,-8.177982707458376L-305.8255785835131,-6.006152183310995" style="fill:none;stroke:rgb(0,0,0);stroke-width:1;stroke-linecap:round"></path><path d="M-315.8591483845456,-103.9946500423224L-305.8255785835131,-101.82281951817505L-233.50834912394097,-110.73613497183538z" style="fill:rgb(238,238,238); fill-opacity: 0.4"></path><path d="M-178.2235778656717,-37.63779464736674L-216.20644187438162,-45.85942912886165M-216.20644187438162,-52.7711406497952L-216.20644187438162,-45.85942912886165M-216.20644187438162,-45.85942912886165L-222.14679634338435,-45.3731337863961" style="fill:none;stroke:rgb(0,0,0);stroke-width:1;stroke-linecap:round"></path><path d="M-305.8255785835131,-101.82281951817505L-305.8255785835131,-6.006152183311002L-223.4747793229085,-108.564304447688z" style="fill:rgb(238,238,238); fill-opacity: 0.4"></path><path d="M-178.2235778656717,-44.54950616830028L-216.20644187438162,-52.7711406497952M-216.20644187438162,-52.7711406497952L-222.14679634338435,-52.284845307329654" style="fill:none;stroke:rgb(0,0,0);stroke-width:1;stroke-linecap:round"></path><path d="M-216.20644187438162,-52.7711406497952L-216.20644187438162,-45.85942912886165L-222.14679634338435,-52.284845307329654zM-216.20644187438162,-45.85942912886165L-222.14679634338435,-45.3731337863961L-222.14679634338435,-52.284845307329654z" style="fill:rgb(153,221,255); fill-opacity: 0.4"></path><path d="M-172.3729429456749,-89.97901380818017L-210.35580695438483,-98.20064828967507M-210.35580695438483,-98.20064828967507L-282.412754891123,-92.30184909229305M-222.14679634338435,-52.284845307329654L-222.14679634338435,-45.3731337863961M-222.14679634338435,-45.3731337863961L-184.16393233467443,-37.15149930490119M-222.14679634338435,-52.284845307329654L-184.16393233467443,-44.06321082583474M-315.8591483845456,-103.9946500423224L-305.8255785835131,-101.82281951817505" style="fill:none;stroke:rgb(0,0,0);stroke-width:1;stroke-linecap:round"></path><path d="M-315.8591483845456,-103.9946500423224L-315.8591483845456,-8.177982707458371L-305.8255785835131,-101.82281951817505zM-315.8591483845456,-8.177982707458371L-305.8255785835131,-6.006152183311002L-305.8255785835131,-101.82281951817505z" style="fill:rgb(238,238,238); fill-opacity: 0.4"></path><path d="M-305.8255785835131,-101.82281951817505L-305.8255785835131,-6.006152183310995" style="fill:none;stroke:rgb(0,0,0);stroke-width:1;stroke-linecap:round"></path><path d="M-210.3558069543848,-98.20064828967504L-210.3558069543848,-14.361066019549467L-282.412754891123,-92.30184909229304zM-172.3729429456749,-6.13943153805456L-210.3558069543848,-14.361066019549467L-210.3558069543848,-98.20064828967504z" style="fill:rgb(238,238,238); fill-opacity: 0.4"></path><path d="M-178.2235778656717,-37.63779464736673L-216.20644187438162,-45.85942912886165L-216.20644187438162,-52.7711406497952zM-222.14679634338435,-45.3731337863961L-216.20644187438162,-45.85942912886165L-178.2235778656717,-37.63779464736673zM-222.14679634338435,-52.284845307329654L-184.1639323346744,-44.063210825834744L-216.20644187438162,-52.7711406497952zM-222.14679634338435,-52.284845307329654L-222.14679634338435,-45.3731337863961L-184.1639323346744,-44.063210825834744z" style="fill:rgb(153,221,255); fill-opacity: 0.4"></path><path d="M-210.3558069543848,-14.361066019549467L-282.412754891123,-8.46226682216746L-282.412754891123,-92.30184909229304zM-282.412754891123,-8.46226682216746L-210.3558069543848,-14.361066019549467L-172.3729429456749,-6.13943153805456z" style="fill:rgb(238,238,238); fill-opacity: 0.4"></path><path d="M-282.412754891123,-92.30184909229305L-282.412754891123,-8.46226682216747M-282.412754891123,-8.46226682216747L-244.42989088241302,-0.2406323406725604" style="fill:none;stroke:rgb(0,0,0);stroke-width:1;stroke-linecap:round"></path><path d="M-172.3729429456749,-89.97901380818016L-172.3729429456749,-6.13943153805456L-210.3558069543848,-98.20064828967504z" style="fill:rgb(238,238,238); fill-opacity: 0.4"></path><path d="M-178.2235778656717,-44.54950616830028L-178.2235778656717,-37.63779464736673L-216.20644187438162,-52.7711406497952zM-184.1639323346744,-44.063210825834744L-178.2235778656717,-44.54950616830028L-216.20644187438162,-52.7711406497952zM-184.1639323346744,-37.15149930490119L-222.14679634338435,-45.3731337863961L-178.2235778656717,-37.63779464736673zM-222.14679634338435,-45.3731337863961L-184.1639323346744,-37.15149930490119L-184.1639323346744,-44.063210825834744z" style="fill:rgb(153,221,255); fill-opacity: 0.4"></path><path d="M-282.412754891123,-92.30184909229305L-244.42989088241302,-84.08021461079815" style="fill:none;stroke:rgb(0,0,0);stroke-width:1;stroke-linecap:round"></path><path d="M-282.412754891123,-92.30184909229304L-244.42989088241308,-84.08021461079815L-210.3558069543848,-98.20064828967504z" style="fill:rgb(238,238,238); fill-opacity: 0.4"></path><path d="M-172.3729429456749,-89.97901380818017L-172.3729429456749,-6.139431538054564M-172.3729429456749,-6.139431538054564L-244.42989088241302,-0.2406323406725604" style="fill:none;stroke:rgb(0,0,0);stroke-width:1;stroke-linecap:round"></path><path d="M-244.42989088241308,-84.08021461079815L-172.3729429456749,-89.97901380818016L-210.3558069543848,-98.20064828967504z" style="fill:rgb(238,238,238); fill-opacity: 0.4"></path><path d="M-178.2235778656717,-44.54950616830028L-178.2235778656717,-37.63779464736674M-178.2235778656717,-37.63779464736674L-184.16393233467443,-37.15149930490119M-178.22357422029205,-44.54950530438179L-178.22357422029205,-37.637793577463185M-178.22357422029205,-37.637793577463185L-184.16392868929478,-37.15149823499764M-178.22357422029205,-37.637793577463185L-166.8146619207882,-37.50520568724473M-178.2235778656717,-44.54950616830028L-184.16393233467443,-44.06321082583474M-178.22357422029205,-44.54950530438179L-184.16392868929478,-44.06320996191624M-178.22357422029205,-44.54950530438179L-166.8146619207882,-37.50520568724473" style="fill:none;stroke:rgb(0,0,0);stroke-width:1;stroke-linecap:round"></path><path d="M-244.42989088241308,-0.2406323406725513L-282.412754891123,-8.46226682216746L-172.3729429456749,-6.13943153805456z" style="fill:rgb(238,238,238); fill-opacity: 0.4"></path><path d="M-184.1639323346744,-37.15149930490119L-178.2235778656717,-37.63779464736673L-178.2235778656717,-44.54950616830028z" style="fill:rgb(153,221,255); fill-opacity: 0.4"></path><path d="M-178.22357704687118,-44.54950599106566L-178.22357704687118,-37.63779447013211L-184.16393151587388,-37.15149912766656z" style="fill:rgb(255,187,187); fill-opacity: 0.4"></path><path d="M-282.412754891123,-92.30184909229304L-282.412754891123,-8.46226682216746L-244.42989088241308,-84.08021461079815z" style="fill:rgb(238,238,238); fill-opacity: 0.4"></path><path d="M-184.1639323346744,-44.063210825834744L-184.1639323346744,-37.15149930490119L-178.2235778656717,-44.54950616830028z" style="fill:rgb(153,221,255); fill-opacity: 0.4"></path><path d="M-178.22357704687118,-44.54950599106566L-184.16393151587388,-37.15149912766656L-184.16393151587388,-44.06321064860011z" style="fill:rgb(255,187,187); fill-opacity: 0.4"></path><path d="M-172.3729429456749,-89.97901380818017L-244.42989088241302,-84.08021461079815M-184.16393233467443,-44.06321082583474L-184.16393233467443,-37.15149930490119M-184.16392868929478,-37.15149823499764L-184.16392868929478,-44.06320996191624M-184.16392868929478,-37.15149823499764L-166.8146619207882,-37.50520568724473M-184.16392868929478,-44.06320996191624L-166.8146619207882,-37.50520568724473" style="fill:none;stroke:rgb(0,0,0);stroke-width:1;stroke-linecap:round"></path><path d="M-244.42989088241308,-0.2406323406725513L-172.3729429456749,-6.13943153805456L-172.3729429456749,-89.97901380818016z" style="fill:rgb(238,238,238); fill-opacity: 0.4"></path><path d="M-178.22357704687118,-37.63779447013211L-178.22357704687118,-44.54950599106566L-166.81466580969732,-37.50520629139272zM-184.16393151587388,-37.15149912766656L-178.22357704687118,-37.63779447013211L-166.81466580969732,-37.50520629139272zM-178.22357704687118,-44.54950599106566L-184.16393151587388,-44.06321064860011L-166.81466580969732,-37.50520629139272zM-184.16393151587388,-44.06321064860011L-184.16393151587388,-37.15149912766656L-166.81466580969732,-37.50520629139272z" style="fill:rgb(255,187,187); fill-opacity: 0.4"></path><path d="M-282.412754891123,-8.46226682216746L-244.42989088241308,-0.2406323406725513L-244.42989088241308,-84.08021461079815z" style="fill:rgb(238,238,238); fill-opacity: 0.4"></path><path d="M-114.94062760715994,1.8390468023629207L-159.25397011196935,-7.752860344088444M-159.25397011196935,-79.61535754947559L-159.25397011196935,-7.752860344088444M-159.25397011196935,-7.752860344088444L-221.01706672484107,-2.6967468788374" style="fill:none;stroke:rgb(0,0,0);stroke-width:1;stroke-linecap:round"></path><path d="M-244.42989088241308,-84.08021461079815L-244.42989088241308,-0.2406323406725513L-172.3729429456749,-89.97901380818016z" style="fill:rgb(238,238,238); fill-opacity: 0.4"></path><path d="M-114.94062760715994,-70.02345040302423L-159.25397011196935,-79.61535754947559M-159.25397011196935,-79.61535754947559L-221.01706672484107,-74.55924408422456M-244.42989088241302,-84.08021461079815L-244.42989088241302,-0.2406323406725604" style="fill:none;stroke:rgb(0,0,0);stroke-width:1;stroke-linecap:round"></path><path d="M-159.25397011196935,-79.6153575494756L-159.25397011196935,-7.752860344088445L-221.01706672484107,-74.55924408422456zM-114.94062760715993,1.8390468023629198L-159.25397011196935,-7.752860344088445L-159.25397011196935,-79.6153575494756zM-159.25397011196935,-7.752860344088445L-221.01706672484107,-2.6967468788374007L-221.01706672484107,-74.55924408422456z" style="fill:rgb(238,238,238); fill-opacity: 0.4"></path><path d="M-159.67344116482445,-22.703298848679218L-203.9867836696338,-32.29520599513058M-203.9867836696338,-39.20691751606413L-203.9867836696338,-32.29520599513058M-203.9867836696338,-32.29520599513058L-209.92713813863654,-31.808910652665038M-159.67344116482445,-29.615010369612765L-203.9867836696338,-39.20691751606413M-203.9867836696338,-39.20691751606413L-209.92713813863654,-38.72062217359859" style="fill:none;stroke:rgb(0,0,0);stroke-width:1;stroke-linecap:round"></path><path d="M-203.9867836696338,-39.206917516064124L-203.9867836696338,-32.29520599513057L-209.92713813863654,-38.720622173598585zM-203.9867836696338,-32.29520599513057L-209.92713813863654,-31.80891065266503L-209.92713813863654,-38.720622173598585z" style="fill:rgb(153,221,255); fill-opacity: 0.4"></path><path d="M-209.92713813863654,-38.72062217359859L-209.92713813863654,-31.808910652665038M-209.92713813863654,-31.808910652665038L-165.61379563382718,-22.217003506213672M-209.92713813863654,-38.72062217359859L-165.61379563382718,-29.12871502714722" style="fill:none;stroke:rgb(0,0,0);stroke-width:1;stroke-linecap:round"></path><path d="M-221.01706672484107,-2.6967468788374007L-159.25397011196935,-7.752860344088445L-114.94062760715993,1.8390468023629198z" style="fill:rgb(238,238,238); fill-opacity: 0.4"></path><path d="M-221.01706672484107,-74.55924408422456L-221.01706672484107,-2.6967468788374M-221.01706672484107,-2.6967468788374L-176.70372422003166,6.8951602676139645M-221.01706672484107,-74.55924408422456L-176.70372422003166,-64.96733693777318" style="fill:none;stroke:rgb(0,0,0);stroke-width:1;stroke-linecap:round"></path><path d="M-114.94062760715993,-70.02345040302424L-114.94062760715993,1.8390468023629198L-159.25397011196935,-79.6153575494756z" style="fill:rgb(238,238,238); fill-opacity: 0.4"></path><path d="M-159.67344116482445,-22.703298848679214L-203.9867836696338,-32.29520599513057L-203.9867836696338,-39.206917516064124zM-209.92713813863654,-31.80891065266503L-203.9867836696338,-32.29520599513057L-159.67344116482445,-22.703298848679214zM-209.92713813863654,-38.720622173598585L-165.61379563382715,-29.12871502714722L-203.9867836696338,-39.206917516064124z" style="fill:rgb(153,221,255); fill-opacity: 0.4"></path><path d="M-221.01706672484107,-74.55924408422456L-176.70372422003166,-64.96733693777318L-159.25397011196935,-79.6153575494756z" style="fill:rgb(238,238,238); fill-opacity: 0.4"></path><path d="M-209.92713813863654,-38.720622173598585L-209.92713813863654,-31.80891065266503L-165.61379563382715,-29.12871502714722z" style="fill:rgb(153,221,255); fill-opacity: 0.4"></path><path d="M-221.01706672484107,-74.55924408422456L-221.01706672484107,-2.6967468788374007L-176.70372422003166,-64.96733693777318zM-176.70372422003166,-64.96733693777318L-114.94062760715993,-70.02345040302424L-159.25397011196935,-79.6153575494756z" style="fill:rgb(238,238,238); fill-opacity: 0.4"></path><path d="M-114.94062760715994,-70.02345040302423L-114.94062760715994,1.8390468023629207M-114.94062760715994,1.8390468023629207L-176.70372422003166,6.8951602676139645" style="fill:none;stroke:rgb(0,0,0);stroke-width:1;stroke-linecap:round"></path><path d="M-176.70372422003166,6.895160267613964L-221.01706672484107,-2.6967468788374007L-114.94062760715993,1.8390468023629198z" style="fill:rgb(238,238,238); fill-opacity: 0.4"></path><path d="M-159.67344116482445,-29.615010369612758L-159.67344116482445,-22.703298848679214L-203.9867836696338,-39.206917516064124zM-165.61379563382715,-29.12871502714722L-159.67344116482445,-29.615010369612758L-203.9867836696338,-39.206917516064124z" style="fill:rgb(153,221,255); fill-opacity: 0.4"></path><path d="M-114.94062760715994,-70.02345040302423L-176.70372422003166,-64.96733693777318" style="fill:none;stroke:rgb(0,0,0);stroke-width:1;stroke-linecap:round"></path><path d="M-165.61379563382715,-22.21700350621367L-209.92713813863654,-31.80891065266503L-159.67344116482445,-22.703298848679214zM-209.92713813863654,-31.80891065266503L-165.61379563382715,-22.21700350621367L-165.61379563382715,-29.12871502714722z" style="fill:rgb(153,221,255); fill-opacity: 0.4"></path><path d="M-176.70372422003166,6.895160267613964L-114.94062760715993,1.8390468023629198L-114.94062760715993,-70.02345040302424zM-221.01706672484107,-2.6967468788374007L-176.70372422003166,6.895160267613964L-176.70372422003166,-64.96733693777318z" style="fill:rgb(238,238,238); fill-opacity: 0.4"></path><path d="M-159.673445317225,-29.61501125844353L-159.673445317225,-22.70329937703614M-159.673445317225,-22.70329937703614L-165.61379978622773,-22.217004034570596M-159.673445317225,-22.70329937703614L-141.57415197541707,-22.903593517341722M-159.67344116482445,-29.615010369612765L-159.67344116482445,-22.703298848679218M-159.67344116482445,-22.703298848679218L-165.61379563382718,-22.217003506213672" style="fill:none;stroke:rgb(0,0,0);stroke-width:1;stroke-linecap:round"></path><path d="M-176.70372422003166,-64.96733693777318L-176.70372422003166,6.895160267613964L-114.94062760715993,-70.02345040302424z" style="fill:rgb(238,238,238); fill-opacity: 0.4"></path><path d="M-159.673445317225,-29.61501125844353L-165.61379978622773,-29.128715915977992M-159.673445317225,-29.61501125844353L-141.57415197541707,-22.903593517341722M-159.67344116482445,-29.615010369612765L-165.61379563382718,-29.12871502714722" style="fill:none;stroke:rgb(0,0,0);stroke-width:1;stroke-linecap:round"></path><path d="M-165.61379563382715,-22.21700350621367L-159.67344116482445,-22.703298848679214L-159.67344116482445,-29.615010369612758z" style="fill:rgb(153,221,255); fill-opacity: 0.4"></path><path d="M-159.67344079021439,-29.615010288526012L-159.67344079021439,-22.703298767592464L-165.6137952592171,-22.21700342512692z" style="fill:rgb(255,187,187); fill-opacity: 0.4"></path><path d="M-51.17783182834475,11.18780067931829L-101.8216528292536,0.22562086791047412M-101.8216528292536,-59.659797864259986L-101.8216528292536,0.22562086791047412M-101.8216528292536,0.22562086791047412L-153.29090378342238,4.43904906479793" style="fill:none;stroke:rgb(0,0,0);stroke-width:1;stroke-linecap:round"></path><path d="M-165.61379563382715,-29.12871502714722L-165.61379563382715,-22.21700350621367L-159.67344116482445,-29.615010369612758z" style="fill:rgb(153,221,255); fill-opacity: 0.4"></path><path d="M-159.67344079021439,-29.615010288526012L-165.6137952592171,-22.21700342512692L-165.6137952592171,-29.12871494606047z" style="fill:rgb(255,187,187); fill-opacity: 0.4"></path><path d="M-165.61379978622773,-22.217004034570596L-165.61379978622773,-29.128715915977992M-165.61379978622773,-22.217004034570596L-141.57415197541707,-22.903593517341722M-165.61379563382718,-29.12871502714722L-165.61379563382718,-22.217003506213672M-165.61379978622773,-29.128715915977992L-141.57415197541707,-22.903593517341722M-176.70372422003166,-64.96733693777318L-176.70372422003166,6.8951602676139645" style="fill:none;stroke:rgb(0,0,0);stroke-width:1;stroke-linecap:round"></path><path d="M-159.67344079021439,-22.703298767592464L-159.67344079021439,-29.615010288526012L-141.57414697486587,-22.903592609843304z" style="fill:rgb(255,187,187); fill-opacity: 0.4"></path><path d="M-51.17783182834475,-48.697618052852185L-101.8216528292536,-59.659797864259986M-101.8216528292536,-59.659797864259986L-153.29090378342238,-55.44636966737253" style="fill:none;stroke:rgb(0,0,0);stroke-width:1;stroke-linecap:round"></path><path d="M-165.6137952592171,-22.21700342512692L-159.67344079021439,-22.703298767592464L-141.57414697486587,-22.903592609843304zM-159.67344079021439,-29.615010288526012L-165.6137952592171,-29.12871494606047L-141.57414697486587,-22.903592609843304zM-165.6137952592171,-29.12871494606047L-165.6137952592171,-22.21700342512692L-141.57414697486587,-22.903592609843304z" style="fill:rgb(255,187,187); fill-opacity: 0.4"></path><path d="M-101.82165282925357,-59.65979786426L-101.82165282925357,0.22562086791047814L-153.29090378342238,-55.446369667372544z" style="fill:rgb(238,238,238); fill-opacity: 0.4"></path><path d="M-74.15003570051027,-36.74554744875332L-124.79385670141912,-47.707727260161136M-124.79385670141912,-54.61943878109468L-124.79385670141912,-47.707727260161136M-124.79385670141912,-47.707727260161136L-130.73421117042184,-47.22143191769559M-74.15003570051027,-43.657258969686865L-124.79385670141912,-54.61943878109468M-124.79385670141912,-54.61943878109468L-130.73421117042184,-54.13314343862913" style="fill:none;stroke:rgb(0,0,0);stroke-width:1;stroke-linecap:round"></path><path d="M-124.7938567014191,-54.619438781094665L-124.7938567014191,-47.707727260161136L-130.73421117042182,-54.13314343862913zM-124.7938567014191,-47.707727260161136L-130.73421117042182,-47.22143191769559L-130.73421117042182,-54.13314343862913z" style="fill:rgb(153,221,255); fill-opacity: 0.4"></path><path d="M-101.82165282925357,0.22562086791047814L-153.29090378342238,4.439049064797934L-153.29090378342238,-55.446369667372544z" style="fill:rgb(238,238,238); fill-opacity: 0.4"></path><path d="M-130.73421117042184,-54.13314343862913L-130.73421117042184,-47.22143191769559M-130.73421117042184,-47.22143191769559L-80.090390169513,-36.259252106287775M-130.73421117042184,-54.13314343862913L-80.090390169513,-43.17096362722132" style="fill:none;stroke:rgb(0,0,0);stroke-width:1;stroke-linecap:round"></path><path d="M-51.177831828344736,11.18780067931829L-101.82165282925357,0.22562086791047814L-101.82165282925357,-59.65979786426z" style="fill:rgb(238,238,238); fill-opacity: 0.4"></path><path d="M-153.29090378342238,-55.44636966737253L-153.29090378342238,4.43904906479793M-153.29090378342238,4.43904906479793L-102.64708278251351,15.401228876205744" style="fill:none;stroke:rgb(0,0,0);stroke-width:1;stroke-linecap:round"></path><path d="M-153.29090378342238,4.439049064797934L-101.82165282925357,0.22562086791047814L-51.177831828344736,11.18780067931829z" style="fill:rgb(238,238,238); fill-opacity: 0.4"></path><path d="M-153.29090378342238,-55.44636966737253L-102.64708278251351,-44.48418985596472" style="fill:none;stroke:rgb(0,0,0);stroke-width:1;stroke-linecap:round"></path><path d="M-74.15003570051027,-36.745547448753314L-124.7938567014191,-47.707727260161136L-124.7938567014191,-54.619438781094665zM-130.73421117042182,-47.22143191769559L-124.7938567014191,-47.707727260161136L-74.15003570051027,-36.745547448753314zM-130.73421117042182,-54.13314343862913L-80.090390169513,-43.17096362722131L-124.7938567014191,-54.619438781094665zM-130.73421117042182,-54.13314343862913L-130.73421117042182,-47.22143191769559L-80.090390169513,-43.17096362722131z" style="fill:rgb(153,221,255); fill-opacity: 0.4"></path><path d="M-153.29090378342238,-55.446369667372544L-102.64708278251348,-44.48418985596472L-101.82165282925357,-59.65979786426zM-51.177831828344736,-48.697618052852185L-51.177831828344736,11.18780067931829L-101.82165282925357,-59.65979786426zM-153.29090378342238,-55.446369667372544L-153.29090378342238,4.439049064797934L-102.64708278251348,-44.48418985596472zM-102.64708278251348,-44.48418985596472L-51.177831828344736,-48.697618052852185L-101.82165282925357,-59.65979786426zM-102.64708278251348,15.401228876205748L-153.29090378342238,4.439049064797934L-51.177831828344736,11.18780067931829z" style="fill:rgb(238,238,238); fill-opacity: 0.4"></path><path d="M-74.15003570051027,-43.65725896968686L-74.15003570051027,-36.745547448753314L-124.7938567014191,-54.619438781094665zM-80.090390169513,-43.17096362722131L-74.15003570051027,-43.65725896968686L-124.7938567014191,-54.619438781094665zM-80.090390169513,-36.25925210628777L-130.73421117042182,-47.22143191769559L-74.15003570051027,-36.745547448753314zM-130.73421117042182,-47.22143191769559L-80.090390169513,-36.25925210628777L-80.090390169513,-43.17096362722131z" style="fill:rgb(153,221,255); fill-opacity: 0.4"></path><path d="M-51.17783182834475,-48.697618052852185L-51.17783182834475,11.18780067931829M-51.17783182834475,11.18780067931829L-102.64708278251351,15.401228876205744" style="fill:none;stroke:rgb(0,0,0);stroke-width:1;stroke-linecap:round"></path><path d="M-153.29090378342238,4.439049064797934L-102.64708278251348,15.401228876205748L-102.64708278251348,-44.48418985596472z" style="fill:rgb(238,238,238); fill-opacity: 0.4"></path><path d="M-51.17783182834475,-48.697618052852185L-102.64708278251351,-44.48418985596472" style="fill:none;stroke:rgb(0,0,0);stroke-width:1;stroke-linecap:round"></path><path d="M-102.64708278251348,15.401228876205748L-51.177831828344736,11.18780067931829L-51.177831828344736,-48.697618052852185z" style="fill:rgb(238,238,238); fill-opacity: 0.4"></path><path d="M-74.15003570051027,-43.657258969686865L-74.15003570051027,-36.74554744875332M-74.15003570051027,-36.74554744875332L-80.090390169513,-36.259252106287775M-74.15003327712594,-43.65725919735478L-74.15003327712594,-36.74554767642123M-74.15003327712594,-36.74554767642123L-80.09038774612867,-36.25925233395569M-74.15003327712594,-36.74554767642123L-58.81276200141184,-31.342471836640946M-74.15003570051027,-43.657258969686865L-80.090390169513,-43.17096362722132M-74.15003327712594,-43.65725919735478L-80.09038774612867,-43.17096385488924M-74.15003327712594,-43.65725919735478L-58.81276200141184,-31.342471836640946" style="fill:none;stroke:rgb(0,0,0);stroke-width:1;stroke-linecap:round"></path><path d="M-74.15003577009071,-43.65725898474799L-74.15003577009071,-36.74554746381444L-80.09039023909344,-36.2592521213489z" style="fill:rgb(255,187,187); fill-opacity: 0.4"></path><path d="M-80.090390169513,-36.25925210628777L-74.15003570051027,-36.745547448753314L-74.15003570051027,-43.65725896968686z" style="fill:rgb(153,221,255); fill-opacity: 0.4"></path><path d="M-74.15003577009071,-43.65725898474799L-80.09039023909344,-36.2592521213489L-80.09039023909344,-43.17096364228245z" style="fill:rgb(255,187,187); fill-opacity: 0.4"></path><path d="M-80.090390169513,-43.17096362722131L-80.090390169513,-36.25925210628777L-74.15003570051027,-43.65725896968686z" style="fill:rgb(153,221,255); fill-opacity: 0.4"></path><path d="M-80.090390169513,-43.17096362722132L-80.090390169513,-36.259252106287775M-80.09038774612867,-36.25925233395569L-80.09038774612867,-43.17096385488924M-80.09038774612867,-36.25925233395569L-58.81276200141184,-31.342471836640946M-80.09038774612867,-43.17096385488924L-58.81276200141184,-31.342471836640946" style="fill:none;stroke:rgb(0,0,0);stroke-width:1;stroke-linecap:round"></path><path d="M-102.64708278251348,-44.48418985596472L-102.64708278251348,15.401228876205748L-51.177831828344736,-48.697618052852185z" style="fill:rgb(238,238,238); fill-opacity: 0.4"></path><path d="M-74.15003577009071,-36.74554746381444L-74.15003577009071,-43.65725898474799L-58.81276457644735,-31.342472761167137z" style="fill:rgb(255,187,187); fill-opacity: 0.4"></path><path d="M-102.64708278251351,-44.48418985596472L-102.64708278251351,15.401228876205744" style="fill:none;stroke:rgb(0,0,0);stroke-width:1;stroke-linecap:round"></path><path d="M-80.09039023909344,-36.2592521213489L-74.15003577009071,-36.74554746381444L-58.81276457644735,-31.342472761167137zM-74.15003577009071,-43.65725898474799L-80.09039023909344,-43.17096364228245L-58.81276457644735,-31.342472761167137z" style="fill:rgb(255,187,187); fill-opacity: 0.4"></path><path d="M18.915438725607213,21.90682396505716L-38.05886077140112,9.57437148869289M-38.05886077140112,-38.333962178739135L-38.05886077140112,9.57437148869289M-38.05886077140112,9.57437148869289L-79.23426040170344,12.945113953449383" style="fill:none;stroke:rgb(0,0,0);stroke-width:1;stroke-linecap:round"></path><path d="M-80.09039023909344,-43.17096364228245L-80.09039023909344,-36.2592521213489L-58.81276457644735,-31.342472761167137z" style="fill:rgb(255,187,187); fill-opacity: 0.4"></path><path d="M18.915438725607213,-26.001509702374864L-38.05886077140112,-38.333962178739135M-38.05886077140112,-38.333962178739135L-79.23426040170344,-34.963219713982646" style="fill:none;stroke:rgb(0,0,0);stroke-width:1;stroke-linecap:round"></path><path d="M-38.058860771401115,-38.333962178739135L-38.058860771401115,9.57437148869289L-79.23426040170341,-34.963219713982646z" style="fill:rgb(238,238,238); fill-opacity: 0.4"></path><path d="M-3.6741532325015074,3.9454939616594635L-60.64845272950983,-8.386958514704805M-60.64845272950983,-15.298670035638354L-60.64845272950983,-8.386958514704805M-60.64845272950983,-8.386958514704805L-66.58880719851255,-7.900663172239262M-3.6741532325015074,-2.9662175592740856L-60.64845272950983,-15.298670035638354M-60.64845272950983,-15.298670035638354L-66.58880719851255,-14.81237469317281" style="fill:none;stroke:rgb(0,0,0);stroke-width:1;stroke-linecap:round"></path><path d="M-60.64845272950982,-15.298670035638354L-60.64845272950982,-8.386958514704805L-66.58880719851254,-14.81237469317281z" style="fill:rgb(153,221,255); fill-opacity: 0.4"></path><path d="M-38.058860771401115,9.57437148869289L-79.23426040170341,12.945113953449379L-79.23426040170341,-34.963219713982646z" style="fill:rgb(238,238,238); fill-opacity: 0.4"></path><path d="M-60.64845272950982,-8.386958514704805L-66.58880719851254,-7.900663172239262L-66.58880719851254,-14.81237469317281z" style="fill:rgb(153,221,255); fill-opacity: 0.4"></path><path d="M-66.58880719851255,-14.81237469317281L-66.58880719851255,-7.900663172239262M-66.58880719851255,-7.900663172239262L-9.614507701504238,4.431789304125007M-66.58880719851255,-14.81237469317281L-9.614507701504238,-2.479922216808543M-79.23426040170344,-34.963219713982646L-79.23426040170344,12.945113953449383M-79.23426040170344,12.945113953449383L-22.2599609046951,25.277566429813646M-79.23426040170344,-34.963219713982646L-22.2599609046951,-22.630767237618375" style="fill:none;stroke:rgb(0,0,0);stroke-width:1;stroke-linecap:round"></path><path d="M18.915438725607213,21.90682396505716L-38.058860771401115,9.57437148869289L-38.058860771401115,-38.333962178739135zM-79.23426040170341,12.945113953449379L-38.058860771401115,9.57437148869289L18.915438725607213,21.90682396505716z" style="fill:rgb(238,238,238); fill-opacity: 0.4"></path><path d="M-3.674153232501509,3.9454939616594626L-60.64845272950982,-8.386958514704805L-60.64845272950982,-15.298670035638354zM-66.58880719851254,-7.900663172239262L-60.64845272950982,-8.386958514704805L-3.674153232501509,3.9454939616594626zM-66.58880719851254,-14.81237469317281L-9.614507701504234,-2.4799222168085433L-60.64845272950982,-15.298670035638354zM-66.58880719851254,-14.81237469317281L-66.58880719851254,-7.900663172239262L-9.614507701504234,-2.4799222168085433z" style="fill:rgb(153,221,255); fill-opacity: 0.4"></path><path d="M-79.23426040170341,-34.963219713982646L-22.2599609046951,-22.630767237618375L-38.058860771401115,-38.333962178739135zM-79.23426040170341,-34.963219713982646L-79.23426040170341,12.945113953449379L-22.2599609046951,-22.630767237618375zM18.915438725607213,-26.001509702374864L18.915438725607213,21.90682396505716L-38.058860771401115,-38.333962178739135zM-22.2599609046951,-22.630767237618375L18.915438725607213,-26.001509702374864L-38.058860771401115,-38.333962178739135zM-22.2599609046951,25.277566429813646L-79.23426040170341,12.945113953449379L18.915438725607213,21.90682396505716z" style="fill:rgb(238,238,238); fill-opacity: 0.4"></path><path d="M-3.674153232501509,-2.9662175592740865L-3.674153232501509,3.9454939616594626L-60.64845272950982,-15.298670035638354zM-9.614507701504234,-2.4799222168085433L-3.674153232501509,-2.9662175592740865L-60.64845272950982,-15.298670035638354zM-9.614507701504234,4.431789304125007L-66.58880719851254,-7.900663172239262L-3.674153232501509,3.9454939616594626zM-66.58880719851254,-7.900663172239262L-9.614507701504234,4.431789304125007L-9.614507701504234,-2.4799222168085433z" style="fill:rgb(153,221,255); fill-opacity: 0.4"></path><path d="M-79.23426040170341,12.945113953449379L-22.2599609046951,25.277566429813646L-22.2599609046951,-22.630767237618375z" style="fill:rgb(238,238,238); fill-opacity: 0.4"></path><path d="M18.915438725607213,-26.001509702374864L18.915438725607213,21.90682396505716M18.915438725607213,21.90682396505716L-22.2599609046951,25.277566429813646M18.915438725607213,-26.001509702374864L-22.2599609046951,-22.630767237618375" style="fill:none;stroke:rgb(0,0,0);stroke-width:1;stroke-linecap:round"></path><path d="M-22.2599609046951,25.277566429813646L18.915438725607213,21.90682396505716L18.915438725607213,-26.001509702374864z" style="fill:rgb(238,238,238); fill-opacity: 0.4"></path><path d="M-3.6741536913883506,-2.9662176842484476L-3.6741536913883506,3.9454938366851016M-3.6741536913883506,3.9454938366851016L-9.614508514463793,4.431789208136106M-3.6741536913883506,3.9454938366851016L12.864583728862383,4.412867006807197M-3.6741532325015074,-2.9662175592740856L-3.6741532325015074,3.9454939616594635M-3.6741532325015074,3.9454939616594635L-9.614507701504238,4.431789304125007M-3.6741536913883506,-2.9662176842484476L-9.614508514463793,-2.4799223127974432M-3.6741536913883506,-2.9662176842484476L12.864583728862383,4.412867006807197M-3.6741532325015074,-2.9662175592740856L-9.614507701504238,-2.479922216808543" style="fill:none;stroke:rgb(0,0,0);stroke-width:1;stroke-linecap:round"></path><path d="M-3.6741537462724327,-2.9662176704830974L-3.6741537462724327,3.9454938504504518L-9.614508215275158,4.431789192915996z" style="fill:rgb(255,187,187); fill-opacity: 0.4"></path><path d="M-9.614507701504234,4.431789304125007L-3.674153232501509,3.9454939616594626L-3.674153232501509,-2.9662175592740865z" style="fill:rgb(153,221,255); fill-opacity: 0.4"></path><path d="M-3.6741537462724327,-2.9662176704830974L-9.614508215275158,4.431789192915996L-9.614508215275158,-2.479922328017554z" style="fill:rgb(255,187,187); fill-opacity: 0.4"></path><path d="M-9.614507701504234,-2.4799222168085433L-9.614507701504234,4.431789304125007L-3.674153232501509,-2.9662175592740865z" style="fill:rgb(153,221,255); fill-opacity: 0.4"></path><path d="M-9.614508514463793,4.431789208136106L-9.614508514463793,-2.4799223127974432M-9.614508514463793,4.431789208136106L12.864583728862383,4.412867006807197M-9.614507701504238,-2.479922216808543L-9.614507701504238,4.431789304125007M-9.614508514463793,-2.4799223127974432L12.864583728862383,4.412867006807197" style="fill:none;stroke:rgb(0,0,0);stroke-width:1;stroke-linecap:round"></path><path d="M-22.2599609046951,-22.630767237618375L-22.2599609046951,25.277566429813646L18.915438725607213,-26.001509702374864z" style="fill:rgb(238,238,238); fill-opacity: 0.4"></path><path d="M-22.2599609046951,-22.630767237618375L-22.2599609046951,25.277566429813646" style="fill:none;stroke:rgb(0,0,0);stroke-width:1;stroke-linecap:round"></path><path d="M-3.6741537462724327,3.9454938504504518L-3.6741537462724327,-2.9662176704830974L12.864583665819149,4.412866985988414zM-9.614508215275158,4.431789192915996L-3.6741537462724327,3.9454938504504518L12.864583665819149,4.412866985988414zM-3.6741537462724327,-2.9662176704830974L-9.614508215275158,-2.479922328017554L12.864583665819149,4.412866985988414zM-9.614508215275158,-2.479922328017554L-9.614508215275158,4.431789192915996L12.864583665819149,4.412866985988414z" style="fill:rgb(255,187,187); fill-opacity: 0.4"></path><path d="M95.33918688727766,33.996119723456715L32.03440889416988,20.293394582136003M32.03440889416988,-15.637854020557576L32.03440889416988,20.293394582136003M32.03440889416988,20.293394582136003L1.1528605877340152,22.82145131476152M95.33918688727766,-1.9351288792368553L32.03440889416988,-15.637854020557576M32.03440889416988,-15.637854020557576L1.1528605877340152,-13.109797287932054" style="fill:none;stroke:rgb(0,0,0);stroke-width:1;stroke-linecap:round"></path><path d="M32.034408894169864,-15.637854020557572L32.034408894169864,20.293394582136003L1.152860587734009,-13.109797287932052z" style="fill:rgb(238,238,238); fill-opacity: 0.4"></path><path d="M76.70724455161769,23.198949446066017L13.40246655850989,9.4962243047453M13.40246655850989,4.312440664045139L13.40246655850989,9.4962243047453M13.40246655850989,9.4962243047453L8.947200706757844,9.860945811594458M76.70724455161769,18.01516580536586L13.40246655850989,4.312440664045139M13.40246655850989,4.312440664045139L8.947200706757844,4.677162170894297" style="fill:none;stroke:rgb(0,0,0);stroke-width:1;stroke-linecap:round"></path><path d="M32.034408894169864,20.293394582136003L1.152860587734009,22.82145131476152L1.152860587734009,-13.109797287932052z" style="fill:rgb(238,238,238); fill-opacity: 0.4"></path><path d="M13.402466558509888,4.3124406640451385L13.402466558509888,9.496224304745299L8.94720070675784,4.677162170894295zM13.402466558509888,9.496224304745299L8.94720070675784,9.860945811594458L8.94720070675784,4.677162170894295z" style="fill:rgb(153,221,255); fill-opacity: 0.4"></path><path d="M8.947200706757844,4.677162170894297L8.947200706757844,9.860945811594458M8.947200706757844,9.860945811594458L72.25197869986565,23.563670952915178M8.947200706757844,4.677162170894297L72.25197869986565,18.379887312215015M1.1528605877340152,-13.109797287932054L1.1528605877340152,22.82145131476152M1.1528605877340152,22.82145131476152L64.4576385808418,36.524176456082245M1.1528605877340152,-13.109797287932054L64.4576385808418,0.5929278533886654" style="fill:none;stroke:rgb(0,0,0);stroke-width:1;stroke-linecap:round"></path><path d="M95.33918688727766,33.99611972345672L32.034408894169864,20.293394582136003L32.034408894169864,-15.637854020557572zM1.152860587734009,22.82145131476152L32.034408894169864,20.293394582136003L95.33918688727766,33.99611972345672z" style="fill:rgb(238,238,238); fill-opacity: 0.4"></path><path d="M76.70724455161769,23.19894944606602L13.402466558509888,9.496224304745299L13.402466558509888,4.3124406640451385zM8.94720070675784,9.860945811594458L13.402466558509888,9.496224304745299L76.70724455161769,23.19894944606602zM8.94720070675784,4.677162170894295L72.25197869986565,18.379887312215015L13.402466558509888,4.3124406640451385zM8.94720070675784,4.677162170894295L8.94720070675784,9.860945811594458L72.25197869986565,18.379887312215015z" style="fill:rgb(153,221,255); fill-opacity: 0.4"></path><path d="M1.152860587734009,-13.109797287932052L64.4576385808418,0.5929278533886656L32.034408894169864,-15.637854020557572zM1.152860587734009,-13.109797287932052L1.152860587734009,22.82145131476152L64.4576385808418,0.5929278533886656zM95.33918688727766,-1.9351288792368564L95.33918688727766,33.99611972345672L32.034408894169864,-15.637854020557572zM64.4576385808418,0.5929278533886656L95.33918688727766,-1.9351288792368564L32.034408894169864,-15.637854020557572zM64.4576385808418,36.52417645608224L1.152860587734009,22.82145131476152L95.33918688727766,33.99611972345672z" style="fill:rgb(238,238,238); fill-opacity: 0.4"></path><path d="M76.70724455161769,18.01516580536586L76.70724455161769,23.19894944606602L13.402466558509888,4.3124406640451385zM72.25197869986565,18.379887312215015L76.70724455161769,18.01516580536586L13.402466558509888,4.3124406640451385zM72.25197869986565,23.563670952915178L8.94720070675784,9.860945811594458L76.70724455161769,23.19894944606602zM8.94720070675784,9.860945811594458L72.25197869986565,23.563670952915178L72.25197869986565,18.379887312215015z" style="fill:rgb(153,221,255); fill-opacity: 0.4"></path><path d="M1.152860587734009,22.82145131476152L64.4576385808418,36.52417645608224L64.4576385808418,0.5929278533886656z" style="fill:rgb(238,238,238); fill-opacity: 0.4"></path><path d="M95.33918688727766,-1.9351288792368553L95.33918688727766,33.996119723456715M95.33918688727766,33.996119723456715L64.4576385808418,36.524176456082245M95.33918688727766,-1.9351288792368553L64.4576385808418,0.5929278533886654" style="fill:none;stroke:rgb(0,0,0);stroke-width:1;stroke-linecap:round"></path><path d="M64.4576385808418,36.52417645608224L95.33918688727766,33.99611972345672L95.33918688727766,-1.9351288792368564z" style="fill:rgb(238,238,238); fill-opacity: 0.4"></path><path d="M76.7072421423595,18.015165293526472L76.7072421423595,23.198949088715423M76.7072421423595,23.198949088715423L72.25197629060746,23.56367059556458M76.7072421423595,23.198949088715423L92.7455065187117,24.74318841775335M76.70724455161769,18.01516580536586L76.70724455161769,23.198949446066017M76.70724455161769,23.198949446066017L72.25197869986565,23.563670952915178M76.7072421423595,18.015165293526472L72.25197629060746,18.37988680037563M76.7072421423595,18.015165293526472L92.7455065187117,24.74318841775335M76.70724455161769,18.01516580536586L72.25197869986565,18.379887312215015" style="fill:none;stroke:rgb(0,0,0);stroke-width:1;stroke-linecap:round"></path><path d="M76.70724359365627,18.01516559800897L76.70724359365627,23.19894923870913L72.25197774190423,23.563670745558287z" style="fill:rgb(255,187,187); fill-opacity: 0.4"></path><path d="M72.25197869986565,23.563670952915178L76.70724455161769,23.19894944606602L76.70724455161769,18.01516580536586z" style="fill:rgb(153,221,255); fill-opacity: 0.4"></path><path d="M76.70724359365627,18.01516559800897L72.25197774190423,23.563670745558287L72.25197774190423,18.379887104858128z" style="fill:rgb(255,187,187); fill-opacity: 0.4"></path><path d="M72.25197869986565,18.379887312215015L72.25197869986565,23.563670952915178L76.70724455161769,18.01516580536586z" style="fill:rgb(153,221,255); fill-opacity: 0.4"></path><path d="M72.25197629060746,23.56367059556458L72.25197629060746,18.37988680037563M72.25197629060746,23.56367059556458L92.7455065187117,24.74318841775335M72.25197869986565,18.379887312215015L72.25197869986565,23.563670952915178" style="fill:none;stroke:rgb(0,0,0);stroke-width:1;stroke-linecap:round"></path><path d="M64.4576385808418,0.5929278533886656L64.4576385808418,36.52417645608224L95.33918688727766,-1.9351288792368564z" style="fill:rgb(238,238,238); fill-opacity: 0.4"></path><path d="M72.25197629060746,18.37988680037563L92.7455065187117,24.74318841775335M64.4576385808418,0.5929278533886654L64.4576385808418,36.524176456082245" style="fill:none;stroke:rgb(0,0,0);stroke-width:1;stroke-linecap:round"></path><path d="M76.70724359365627,23.19894923870913L76.70724359365627,18.01516559800897L92.74550797000846,24.74318877373211zM72.25197774190423,23.563670745558287L76.70724359365627,23.19894923870913L92.74550797000846,24.74318877373211zM76.70724359365627,18.01516559800897L72.25197774190423,18.379887104858128L92.74550797000846,24.74318877373211zM72.25197774190423,18.379887104858128L72.25197774190423,23.563670745558287L92.74550797000846,24.74318877373211z" style="fill:rgb(255,187,187); fill-opacity: 0.4"></path><path d="M176.90986026669083,51.65261505201214L113.60508227358304,37.949889910691425M113.60508227358304,2.018641307997847L113.60508227358304,37.949889910691425M113.60508227358304,37.949889910691425L82.72353396714719,40.47794664331695M176.90986026669083,15.721366449318566L113.60508227358304,2.018641307997847M113.60508227358304,2.018641307997847L82.72353396714719,4.54669804062337" style="fill:none;stroke:rgb(0,0,0);stroke-width:1;stroke-linecap:round"></path><path d="M113.60508227358306,2.018641307997846L113.60508227358306,37.949889910691425L82.7235339671472,4.546698040623368z" style="fill:rgb(238,238,238); fill-opacity: 0.4"></path><path d="M156.77583074159816,48.4340577026383L93.47105274849038,34.731332561317586M93.47105274849038,29.547548920617416L93.47105274849038,34.731332561317586M93.47105274849038,34.731332561317586L89.01578689673833,35.09605406816674M156.77583074159816,43.25027406193814L93.47105274849038,29.547548920617416M93.47105274849038,29.547548920617416L89.01578689673833,29.912270427466577" style="fill:none;stroke:rgb(0,0,0);stroke-width:1;stroke-linecap:round"></path><path d="M113.60508227358306,37.949889910691425L82.7235339671472,40.47794664331695L82.7235339671472,4.546698040623368z" style="fill:rgb(238,238,238); fill-opacity: 0.4"></path><path d="M93.4710527484904,29.547548920617423L93.4710527484904,34.731332561317586L89.01578689673835,29.912270427466577zM93.4710527484904,34.731332561317586L89.01578689673835,35.09605406816674L89.01578689673835,29.912270427466577z" style="fill:rgb(153,221,255); fill-opacity: 0.4"></path><path d="M89.01578689673833,29.912270427466577L89.01578689673833,35.09605406816674M89.01578689673833,35.09605406816674L152.3205648898461,48.798779209487456M89.01578689673833,29.912270427466577L152.3205648898461,43.61499556878729M82.72353396714719,4.54669804062337L82.72353396714719,40.47794664331695M82.72353396714719,40.47794664331695L146.028311960255,54.18067178463766M82.72353396714719,4.54669804062337L146.028311960255,18.249423181944092" style="fill:none;stroke:rgb(0,0,0);stroke-width:1;stroke-linecap:round"></path><path d="M176.90986026669086,51.65261505201214L113.60508227358306,37.949889910691425L113.60508227358306,2.018641307997846zM82.7235339671472,40.47794664331695L113.60508227358306,37.949889910691425L176.90986026669086,51.65261505201214z" style="fill:rgb(238,238,238); fill-opacity: 0.4"></path><path d="M156.77583074159818,48.4340577026383L93.4710527484904,34.731332561317586L93.4710527484904,29.547548920617423zM89.01578689673835,35.09605406816674L93.4710527484904,34.731332561317586L156.77583074159818,48.4340577026383zM89.01578689673835,29.912270427466577L152.32056488984614,43.61499556878729L93.4710527484904,29.547548920617423zM89.01578689673835,29.912270427466577L89.01578689673835,35.09605406816674L152.32056488984614,43.61499556878729z" style="fill:rgb(153,221,255); fill-opacity: 0.4"></path><path d="M82.7235339671472,4.546698040623368L146.028311960255,18.24942318194409L113.60508227358306,2.018641307997846zM82.7235339671472,4.546698040623368L82.7235339671472,40.47794664331695L146.028311960255,18.24942318194409zM176.90986026669086,15.721366449318564L176.90986026669086,51.65261505201214L113.60508227358306,2.018641307997846zM146.028311960255,18.24942318194409L176.90986026669086,15.721366449318564L113.60508227358306,2.018641307997846zM146.028311960255,54.18067178463765L82.7235339671472,40.47794664331695L176.90986026669086,51.65261505201214z" style="fill:rgb(238,238,238); fill-opacity: 0.4"></path><path d="M156.77583074159818,43.25027406193814L156.77583074159818,48.4340577026383L93.4710527484904,29.547548920617423zM152.32056488984614,43.61499556878729L156.77583074159818,43.25027406193814L93.4710527484904,29.547548920617423zM152.32056488984614,48.798779209487456L89.01578689673835,35.09605406816674L156.77583074159818,48.4340577026383zM89.01578689673835,35.09605406816674L152.32056488984614,48.798779209487456L152.32056488984614,43.61499556878729z" style="fill:rgb(153,221,255); fill-opacity: 0.4"></path><path d="M82.7235339671472,40.47794664331695L146.028311960255,54.18067178463765L146.028311960255,18.24942318194409z" style="fill:rgb(238,238,238); fill-opacity: 0.4"></path><path d="M176.90986026669083,15.721366449318566L176.90986026669083,51.65261505201214M176.90986026669083,51.65261505201214L146.028311960255,54.18067178463766M176.90986026669083,15.721366449318566L146.028311960255,18.249423181944092" style="fill:none;stroke:rgb(0,0,0);stroke-width:1;stroke-linecap:round"></path><path d="M146.028311960255,54.18067178463765L176.90986026669086,51.65261505201214L176.90986026669086,15.721366449318564z" style="fill:rgb(238,238,238); fill-opacity: 0.4"></path><path d="M156.77583014332805,43.250273782228206L156.77583014332805,48.43405742292836M156.77583014332805,48.43405742292836L152.32056464564874,48.798778900792065M156.77583014332805,48.43405742292836L170.50713195541692,53.66946550473062M156.77583074159816,43.25027406193814L156.77583074159816,48.4340577026383M156.77583074159816,48.4340577026383L152.3205648898461,48.798779209487456M156.77583014332805,43.250273782228206L152.32056464564874,43.6149952600919M156.77583014332805,43.250273782228206L170.50713195541692,53.66946550473062M156.77583074159816,43.25027406193814L152.3205648898461,43.61499556878729" style="fill:none;stroke:rgb(0,0,0);stroke-width:1;stroke-linecap:round"></path><path d="M156.7758297836368,43.25027385458125L156.7758297836368,48.43405749528141L152.32056393188475,48.798779002130566z" style="fill:rgb(255,187,187); fill-opacity: 0.4"></path><path d="M152.32056488984614,48.798779209487456L156.77583074159818,48.4340577026383L156.77583074159818,43.25027406193814z" style="fill:rgb(153,221,255); fill-opacity: 0.4"></path><path d="M156.7758297836368,43.25027385458125L152.32056393188475,48.798779002130566L152.32056393188475,43.61499536143041z" style="fill:rgb(255,187,187); fill-opacity: 0.4"></path><path d="M152.32056488984614,43.61499556878729L152.32056488984614,48.798779209487456L156.77583074159818,43.25027406193814z" style="fill:rgb(153,221,255); fill-opacity: 0.4"></path><path d="M152.32056464564874,48.798778900792065L152.32056464564874,43.6149952600919M152.32056464564874,48.798778900792065L170.50713195541692,53.66946550473062M152.3205648898461,43.61499556878729L152.3205648898461,48.798779209487456" style="fill:none;stroke:rgb(0,0,0);stroke-width:1;stroke-linecap:round"></path><path d="M146.028311960255,18.24942318194409L146.028311960255,54.18067178463765L176.90986026669086,15.721366449318564z" style="fill:rgb(238,238,238); fill-opacity: 0.4"></path><path d="M152.32056464564874,43.6149952600919L170.50713195541692,53.66946550473062M146.028311960255,18.249423181944092L146.028311960255,54.18067178463766" style="fill:none;stroke:rgb(0,0,0);stroke-width:1;stroke-linecap:round"></path><path d="M156.7758297836368,48.43405749528141L156.7758297836368,43.25027385458125L170.50713139407205,53.669466203215954zM152.32056393188475,48.798779002130566L156.7758297836368,48.43405749528141L170.50713139407205,53.669466203215954zM156.7758297836368,43.25027385458125L152.32056393188475,43.61499536143041L170.50713139407205,53.669466203215954z" style="fill:rgb(255,187,187); fill-opacity: 0.4"></path><path d="M263.62745930803726,74.87631004687132L200.32268131492953,61.173584905550584M200.32268131492953,13.265251238118568L200.32268131492953,61.173584905550584M200.32268131492953,61.173584905550584L159.14728168462722,64.54432737030707" style="fill:none;stroke:rgb(0,0,0);stroke-width:1;stroke-linecap:round"></path><path d="M152.32056393188475,43.61499536143041L152.32056393188475,48.798779002130566L170.50713139407205,53.669466203215954z" style="fill:rgb(255,187,187); fill-opacity: 0.4"></path><path d="M263.62745930803726,26.967976379439282L200.32268131492953,13.265251238118568M200.32268131492953,13.265251238118568L159.14728168462722,16.63599370287505M255.70617918420885,56.92081581079837L192.40140119110106,43.218090669477654M192.40140119110106,36.30637914854411L192.40140119110106,43.218090669477654M192.40140119110106,43.218090669477654L186.46104672209833,43.7043860119432M255.70617918420885,50.00910428986482L192.40140119110106,36.30637914854411M192.40140119110106,36.30637914854411L186.46104672209833,36.79267449100965" style="fill:none;stroke:rgb(0,0,0);stroke-width:1;stroke-linecap:round"></path><path d="M192.40140119110106,36.3063791485441L192.40140119110106,43.218090669477654L186.4610467220983,36.79267449100965zM192.40140119110106,43.218090669477654L186.4610467220983,43.70438601194319L186.4610467220983,36.79267449100965z" style="fill:rgb(153,221,255); fill-opacity: 0.4"></path><path d="M186.46104672209833,36.79267449100965L186.46104672209833,43.7043860119432M186.46104672209833,43.7043860119432L249.76582471520612,57.40711115326391M186.46104672209833,36.79267449100965L249.76582471520612,50.49539963233036" style="fill:none;stroke:rgb(0,0,0);stroke-width:1;stroke-linecap:round"></path><path d="M200.32268131492947,13.265251238118562L200.32268131492947,61.17358490555058L159.14728168462716,16.63599370287505zM200.32268131492947,61.17358490555058L159.14728168462716,64.54432737030706L159.14728168462716,16.63599370287505z" style="fill:rgb(238,238,238); fill-opacity: 0.4"></path><path d="M159.14728168462722,16.63599370287505L159.14728168462722,64.54432737030707M159.14728168462722,64.54432737030707L222.45205967773495,78.2470525116278M159.14728168462722,16.63599370287505L222.45205967773495,30.33871884419577" style="fill:none;stroke:rgb(0,0,0);stroke-width:1;stroke-linecap:round"></path><path d="M263.62745930803726,74.8763100468713L200.32268131492947,61.17358490555058L200.32268131492947,13.265251238118562z" style="fill:rgb(238,238,238); fill-opacity: 0.4"></path><path d="M255.7061791842088,56.92081581079835L192.40140119110106,43.218090669477654L192.40140119110106,36.3063791485441z" style="fill:rgb(153,221,255); fill-opacity: 0.4"></path><path d="M159.14728168462716,64.54432737030706L200.32268131492947,61.17358490555058L263.62745930803726,74.8763100468713z" style="fill:rgb(238,238,238); fill-opacity: 0.4"></path><path d="M186.4610467220983,43.70438601194319L192.40140119110106,43.218090669477654L255.7061791842088,56.92081581079835zM186.4610467220983,36.79267449100965L249.76582471520607,50.49539963233035L192.40140119110106,36.3063791485441zM186.4610467220983,36.79267449100965L186.4610467220983,43.70438601194319L249.76582471520607,50.49539963233035z" style="fill:rgb(153,221,255); fill-opacity: 0.4"></path><path d="M159.14728168462716,16.63599370287505L222.45205967773492,30.338718844195757L200.32268131492947,13.265251238118562zM159.14728168462716,16.63599370287505L159.14728168462716,64.54432737030706L222.45205967773492,30.338718844195757zM263.62745930803726,26.96797637943927L263.62745930803726,74.8763100468713L200.32268131492947,13.265251238118562z" style="fill:rgb(238,238,238); fill-opacity: 0.4"></path><path d="M255.7061791842088,50.0091042898648L255.7061791842088,56.92081581079835L192.40140119110106,36.3063791485441zM249.76582471520607,50.49539963233035L255.7061791842088,50.0091042898648L192.40140119110106,36.3063791485441zM249.76582471520607,57.4071111532639L186.4610467220983,43.70438601194319L255.7061791842088,56.92081581079835zM186.4610467220983,43.70438601194319L249.76582471520607,57.4071111532639L249.76582471520607,50.49539963233035z" style="fill:rgb(153,221,255); fill-opacity: 0.4"></path><path d="M222.45205967773492,30.338718844195757L263.62745930803726,26.96797637943927L200.32268131492947,13.265251238118562zM222.45205967773492,78.24705251162779L159.14728168462716,64.54432737030706L263.62745930803726,74.8763100468713zM159.14728168462716,64.54432737030706L222.45205967773492,78.24705251162779L222.45205967773492,30.338718844195757z" style="fill:rgb(238,238,238); fill-opacity: 0.4"></path><path d="M263.62745930803726,26.967976379439282L263.62745930803726,74.87631004687132M263.62745930803726,74.87631004687132L222.45205967773495,78.2470525116278M263.62745930803726,26.967976379439282L222.45205967773495,30.33871884419577M255.70617432195075,50.00910299432437L255.70617432195075,56.92081441226539M255.70617432195075,56.92081441226539L249.76581914480258,57.40710981270185M255.70617432195075,56.92081441226539L273.42595411286266,57.937025384476854M255.70617918420885,50.00910428986482L255.70617918420885,56.92081581079837M255.70617918420885,56.92081581079837L249.76582471520612,57.40711115326391M255.70617432195075,50.00910299432437L249.76581914480258,50.49539839476083M255.70617432195075,50.00910299432437L273.42595411286266,57.937025384476854M255.70617918420885,50.00910428986482L249.76582471520612,50.49539963233036" style="fill:none;stroke:rgb(0,0,0);stroke-width:1;stroke-linecap:round"></path><path d="M255.7061782262474,50.009104082507925L255.7061782262474,56.92081560344147L249.76582375724468,57.407110945907014z" style="fill:rgb(255,187,187); fill-opacity: 0.4"></path><path d="M249.76582471520607,57.4071111532639L255.7061791842088,56.92081581079835L255.7061791842088,50.0091042898648z" style="fill:rgb(153,221,255); fill-opacity: 0.4"></path><path d="M255.7061782262474,50.009104082507925L249.76582375724468,57.407110945907014L249.76582375724468,50.49539942497347z" style="fill:rgb(255,187,187); fill-opacity: 0.4"></path><path d="M249.76582471520607,50.49539963233035L249.76582471520607,57.4071111532639L255.7061791842088,50.0091042898648z" style="fill:rgb(153,221,255); fill-opacity: 0.4"></path><path d="M222.45205967773492,78.24705251162779L263.62745930803726,74.8763100468713L263.62745930803726,26.96797637943927z" style="fill:rgb(238,238,238); fill-opacity: 0.4"></path><path d="M249.76581914480258,57.40710981270185L249.76581914480258,50.49539839476083M249.76581914480258,57.40710981270185L273.42595411286266,57.937025384476854M249.76582471520612,50.49539963233036L249.76582471520612,57.40711115326391M249.76581914480258,50.49539839476083L273.42595411286266,57.937025384476854" style="fill:none;stroke:rgb(0,0,0);stroke-width:1;stroke-linecap:round"></path><path d="M255.7061782262474,56.92081560344147L255.7061782262474,50.009104082507925L273.4259589081796,57.93702643516366zM249.76582375724468,57.407110945907014L255.7061782262474,56.92081560344147L273.4259589081796,57.93702643516366zM255.7061782262474,50.009104082507925L249.76582375724468,50.49539942497347L273.4259589081796,57.93702643516366zM249.76582375724468,50.49539942497347L249.76582375724468,57.407110945907014L273.4259589081796,57.93702643516366z" style="fill:rgb(255,187,187); fill-opacity: 0.4"></path><path d="M222.45205967773492,30.338718844195757L222.45205967773492,78.24705251162779L263.62745930803726,26.96797637943927z" style="fill:rgb(238,238,238); fill-opacity: 0.4"></path><path d="M222.45205967773495,30.33871884419577L222.45205967773495,78.2470525116278M344.0145802974747,96.72973247292187L287.04028080046635,84.39727999655761M287.04028080046635,24.511861264387147L287.04028080046635,84.39727999655761M287.04028080046635,84.39727999655761L235.57102984629762,88.61070819344508M344.0145802974747,36.84431374075142L287.04028080046635,24.511861264387147M287.04028080046635,24.511861264387147L235.57102984629762,28.725289461274603M329.2557961892062,64.96342757275715L272.28149669219783,52.63097509639289M272.28149669219783,45.719263575459344L272.28149669219783,52.63097509639289M272.28149669219783,52.63097509639289L266.3411422231951,53.117270438858434M329.2557961892062,58.051716051823604L272.28149669219783,45.719263575459344M272.28149669219783,45.719263575459344L266.3411422231951,46.20555891792489" style="fill:none;stroke:rgb(0,0,0);stroke-width:1;stroke-linecap:round"></path><path d="M272.28149669219783,45.719263575459344L272.28149669219783,52.63097509639289L266.34114222319516,46.20555891792489z" style="fill:rgb(153,221,255); fill-opacity: 0.4"></path><path d="M287.04028080046635,24.511861264387154L287.04028080046635,84.39727999655761L235.57102984629762,28.725289461274606z" style="fill:rgb(238,238,238); fill-opacity: 0.4"></path><path d="M272.28149669219783,52.63097509639289L266.34114222319516,53.117270438858434L266.34114222319516,46.20555891792489z" style="fill:rgb(153,221,255); fill-opacity: 0.4"></path><path d="M266.3411422231951,46.20555891792489L266.3411422231951,53.117270438858434M266.3411422231951,53.117270438858434L323.31544172020347,65.4497229152227M266.3411422231951,46.20555891792489L323.31544172020347,58.53801139428915" style="fill:none;stroke:rgb(0,0,0);stroke-width:1;stroke-linecap:round"></path><path d="M287.04028080046635,84.39727999655761L235.57102984629762,88.61070819344508L235.57102984629762,28.725289461274606z" style="fill:rgb(238,238,238); fill-opacity: 0.4"></path><path d="M235.57102984629762,28.725289461274603L235.57102984629762,88.61070819344508M235.57102984629762,88.61070819344508L292.545329343306,100.94316066980933" style="fill:none;stroke:rgb(0,0,0);stroke-width:1;stroke-linecap:round"></path><path d="M344.0145802974747,96.7297324729219L287.04028080046635,84.39727999655761L287.04028080046635,24.511861264387154z" style="fill:rgb(238,238,238); fill-opacity: 0.4"></path><path d="M235.57102984629762,28.725289461274603L292.545329343306,41.05774193763887" style="fill:none;stroke:rgb(0,0,0);stroke-width:1;stroke-linecap:round"></path><path d="M235.57102984629762,88.61070819344508L287.04028080046635,84.39727999655761L344.0145802974747,96.7297324729219z" style="fill:rgb(238,238,238); fill-opacity: 0.4"></path><path d="M329.2557961892062,64.96342757275715L272.28149669219783,52.63097509639289L272.28149669219783,45.719263575459344zM266.34114222319516,53.117270438858434L272.28149669219783,52.63097509639289L329.2557961892062,64.96342757275715zM266.34114222319516,46.20555891792489L323.3154417202035,58.53801139428915L272.28149669219783,45.719263575459344zM266.34114222319516,46.20555891792489L266.34114222319516,53.117270438858434L323.3154417202035,58.53801139428915z" style="fill:rgb(153,221,255); fill-opacity: 0.4"></path><path d="M235.57102984629762,28.725289461274606L292.545329343306,41.05774193763887L287.04028080046635,24.511861264387154zM344.0145802974747,36.84431374075142L344.0145802974747,96.7297324729219L287.04028080046635,24.511861264387154zM235.57102984629762,28.725289461274606L235.57102984629762,88.61070819344508L292.545329343306,41.05774193763887z" style="fill:rgb(238,238,238); fill-opacity: 0.4"></path><path d="M329.2557961892062,58.051716051823604L329.2557961892062,64.96342757275715L272.28149669219783,45.719263575459344zM323.3154417202035,58.53801139428915L329.2557961892062,58.051716051823604L272.28149669219783,45.719263575459344zM323.3154417202035,65.4497229152227L266.34114222319516,53.117270438858434L329.2557961892062,64.96342757275715zM266.34114222319516,53.117270438858434L323.3154417202035,65.4497229152227L323.3154417202035,58.53801139428915z" style="fill:rgb(153,221,255); fill-opacity: 0.4"></path><path d="M292.545329343306,41.05774193763887L344.0145802974747,36.84431374075142L287.04028080046635,24.511861264387154zM292.545329343306,100.94316066980934L235.57102984629762,88.61070819344508L344.0145802974747,96.7297324729219z" style="fill:rgb(238,238,238); fill-opacity: 0.4"></path><path d="M344.0145802974747,36.84431374075142L344.0145802974747,96.72973247292187M344.0145802974747,96.72973247292187L292.545329343306,100.94316066980933" style="fill:none;stroke:rgb(0,0,0);stroke-width:1;stroke-linecap:round"></path><path d="M235.57102984629762,88.61070819344508L292.545329343306,100.94316066980934L292.545329343306,41.05774193763887z" style="fill:rgb(238,238,238); fill-opacity: 0.4"></path><path d="M344.0145802974747,36.84431374075142L292.545329343306,41.05774193763887" style="fill:none;stroke:rgb(0,0,0);stroke-width:1;stroke-linecap:round"></path><path d="M292.545329343306,100.94316066980934L344.0145802974747,96.7297324729219L344.0145802974747,36.84431374075142z" style="fill:rgb(238,238,238); fill-opacity: 0.4"></path><path d="M329.2557851853063,58.051713467827845L329.2557851853063,64.96342519474645M329.2557851853063,64.96342519474645L323.3154307163036,65.449720537212M329.2557851853063,64.96342519474645L346.15263837101503,64.2758843895755M329.2557961892062,58.051716051823604L329.2557961892062,64.96342757275715M329.2557961892062,64.96342757275715L323.31544172020347,65.4497229152227M329.2557851853063,58.051713467827845L323.3154307163036,58.53800881029339M329.2557851853063,58.051713467827845L346.15263837101503,64.2758843895755M329.2557961892062,58.051716051823604L323.31544172020347,58.53801139428915" style="fill:none;stroke:rgb(0,0,0);stroke-width:1;stroke-linecap:round"></path><path d="M329.2557956754353,58.051715940614606L329.2557956754353,64.96342746154815L323.31544120643264,65.4497228040137z" style="fill:rgb(255,187,187); fill-opacity: 0.4"></path><path d="M323.3154417202035,65.4497229152227L329.2557961892062,64.96342757275715L329.2557961892062,58.051716051823604z" style="fill:rgb(153,221,255); fill-opacity: 0.4"></path><path d="M329.2557956754353,58.051715940614606L323.31544120643264,65.4497228040137L323.31544120643264,58.53801128308015z" style="fill:rgb(255,187,187); fill-opacity: 0.4"></path><path d="M323.3154417202035,58.53801139428915L323.3154417202035,65.4497229152227L329.2557961892062,58.051716051823604z" style="fill:rgb(153,221,255); fill-opacity: 0.4"></path><path d="M323.3154307163036,65.449720537212L323.3154307163036,58.53800881029339M323.3154307163036,65.449720537212L346.15263837101503,64.2758843895755M323.31544172020347,58.53801139428915L323.31544172020347,65.4497229152227M323.3154307163036,58.53800881029339L346.15263837101503,64.2758843895755" style="fill:none;stroke:rgb(0,0,0);stroke-width:1;stroke-linecap:round"></path><path d="M329.2557956754353,64.96342746154815L329.2557956754353,58.051715940614606L346.15264857002506,64.27588642991118zM323.31544120643264,65.4497228040137L329.2557956754353,64.96342746154815L346.15264857002506,64.27588642991118z" style="fill:rgb(255,187,187); fill-opacity: 0.4"></path><path d="M418.07122084661194,117.21287936243459L367.4273998457031,106.25069955102678M367.4273998457031,34.38820234563963L367.4273998457031,106.25069955102678M367.4273998457031,106.25069955102678L305.66430323283134,111.30681301627781" style="fill:none;stroke:rgb(0,0,0);stroke-width:1;stroke-linecap:round"></path><path d="M329.2557956754353,58.051715940614606L323.31544120643264,58.53801128308015L346.15264857002506,64.27588642991118z" style="fill:rgb(255,187,187); fill-opacity: 0.4"></path><path d="M292.545329343306,41.05774193763887L292.545329343306,100.94316066980934L344.0145802974747,36.84431374075142z" style="fill:rgb(238,238,238); fill-opacity: 0.4"></path><path d="M323.31544120643264,58.53801128308015L323.31544120643264,65.4497228040137L346.15264857002506,64.27588642991118z" style="fill:rgb(255,187,187); fill-opacity: 0.4"></path><path d="M292.545329343306,41.05774193763887L292.545329343306,100.94316066980933M418.07122084661194,45.35038215704745L367.4273998457031,34.38820234563963M367.4273998457031,34.38820234563963L305.66430323283134,39.44431581089068" style="fill:none;stroke:rgb(0,0,0);stroke-width:1;stroke-linecap:round"></path><path d="M367.42739984570306,34.38820234563963L367.42739984570306,106.25069955102678L305.66430323283134,39.44431581089068zM367.42739984570306,106.25069955102678L305.66430323283134,111.30681301627781L305.66430323283134,39.44431581089068zM418.07122084661194,117.2128793624346L367.42739984570306,106.25069955102678L367.42739984570306,34.38820234563963z" style="fill:rgb(238,238,238); fill-opacity: 0.4"></path><path d="M369.11517354942964,87.0274188562266L318.4713525485208,76.0652390448188M318.4713525485208,69.15352752388524L318.4713525485208,76.0652390448188M318.4713525485208,76.0652390448188L312.5309980795181,76.55153438728432M369.11517354942964,80.11570733529305L318.4713525485208,69.15352752388524M318.4713525485208,69.15352752388524L312.5309980795181,69.63982286635078" style="fill:none;stroke:rgb(0,0,0);stroke-width:1;stroke-linecap:round"></path><path d="M318.47135254852077,69.15352752388523L318.47135254852077,76.06523904481878L312.53099807951804,69.63982286635078zM318.47135254852077,76.06523904481878L312.53099807951804,76.55153438728432L312.53099807951804,69.63982286635078z" style="fill:rgb(153,221,255); fill-opacity: 0.4"></path><path d="M305.66430323283134,39.44431581089068L305.66430323283134,111.30681301627781M305.66430323283134,111.30681301627781L356.30812423374016,122.26899282768565M312.5309980795181,69.63982286635078L312.5309980795181,76.55153438728432M312.5309980795181,76.55153438728432L363.1748190804269,87.51371419869214M312.5309980795181,69.63982286635078L363.1748190804269,80.60200267775859" style="fill:none;stroke:rgb(0,0,0);stroke-width:1;stroke-linecap:round"></path><path d="M305.66430323283134,111.30681301627781L367.42739984570306,106.25069955102678L418.07122084661194,117.2128793624346z" style="fill:rgb(238,238,238); fill-opacity: 0.4"></path><path d="M305.66430323283134,39.44431581089068L356.30812423374016,50.40649562229849" style="fill:none;stroke:rgb(0,0,0);stroke-width:1;stroke-linecap:round"></path><path d="M418.07122084661194,45.350382157047456L418.07122084661194,117.2128793624346L367.42739984570306,34.38820234563963z" style="fill:rgb(238,238,238); fill-opacity: 0.4"></path><path d="M369.11517354942964,87.0274188562266L318.47135254852077,76.06523904481878L318.47135254852077,69.15352752388523z" style="fill:rgb(153,221,255); fill-opacity: 0.4"></path><path d="M305.66430323283134,39.44431581089068L356.3081242337402,50.40649562229849L367.42739984570306,34.38820234563963z" style="fill:rgb(238,238,238); fill-opacity: 0.4"></path><path d="M312.53099807951804,76.55153438728432L318.47135254852077,76.06523904481878L369.11517354942964,87.0274188562266zM312.53099807951804,69.63982286635078L363.1748190804269,80.6020026777586L318.47135254852077,69.15352752388523zM312.53099807951804,69.63982286635078L312.53099807951804,76.55153438728432L363.1748190804269,80.6020026777586z" style="fill:rgb(153,221,255); fill-opacity: 0.4"></path><path d="M305.66430323283134,39.44431581089068L305.66430323283134,111.30681301627781L356.3081242337402,50.40649562229849zM356.3081242337402,50.40649562229849L418.07122084661194,45.350382157047456L367.42739984570306,34.38820234563963zM356.3081242337402,122.26899282768565L305.66430323283134,111.30681301627781L418.07122084661194,117.2128793624346z" style="fill:rgb(238,238,238); fill-opacity: 0.4"></path><path d="M418.07122084661194,45.35038215704745L418.07122084661194,117.21287936243459M418.07122084661194,117.21287936243459L356.30812423374016,122.26899282768565" style="fill:none;stroke:rgb(0,0,0);stroke-width:1;stroke-linecap:round"></path><path d="M369.11517354942964,80.11570733529305L369.11517354942964,87.0274188562266L318.47135254852077,69.15352752388523zM363.1748190804269,80.6020026777586L369.11517354942964,80.11570733529305L318.47135254852077,69.15352752388523zM363.1748190804269,87.51371419869214L312.53099807951804,76.55153438728432L369.11517354942964,87.0274188562266z" style="fill:rgb(153,221,255); fill-opacity: 0.4"></path><path d="M418.07122084661194,45.35038215704745L356.30812423374016,50.40649562229849" style="fill:none;stroke:rgb(0,0,0);stroke-width:1;stroke-linecap:round"></path><path d="M312.53099807951804,76.55153438728432L363.1748190804269,87.51371419869214L363.1748190804269,80.6020026777586z" style="fill:rgb(153,221,255); fill-opacity: 0.4"></path><path d="M305.66430323283134,111.30681301627781L356.3081242337402,122.26899282768565L356.3081242337402,50.40649562229849zM356.3081242337402,122.26899282768565L418.07122084661194,117.2128793624346L418.07122084661194,45.350382157047456z" style="fill:rgb(238,238,238); fill-opacity: 0.4"></path><path d="M485.7973866206123,136.3257568431638L441.48404411580293,126.73384969671243M441.48404411580293,42.89426742658684L441.48404411580293,126.73384969671243M441.48404411580293,126.73384969671243L369.42709617906485,132.63264889409444" style="fill:none;stroke:rgb(0,0,0);stroke-width:1;stroke-linecap:round"></path><path d="M356.3081242337402,50.40649562229849L356.3081242337402,122.26899282768565L418.07122084661194,45.350382157047456z" style="fill:rgb(238,238,238); fill-opacity: 0.4"></path><path d="M369.1151703037189,80.11570641080372L369.1151703037189,87.02741813772234M369.1151703037189,87.02741813772234L363.17481441842534,87.51371359612972M369.1151703037189,87.02741813772234L380.90344461099545,87.76931788410737M369.11517354942964,80.11570733529305L369.11517354942964,87.0274188562266M369.11517354942964,87.0274188562266L363.1748190804269,87.51371419869214M369.1151703037189,80.11570641080372L363.17481441842534,80.60200186921112M369.1151703037189,80.11570641080372L380.90344461099545,87.76931788410737M369.11517354942964,80.11570733529305L363.1748190804269,80.60200267775859" style="fill:none;stroke:rgb(0,0,0);stroke-width:1;stroke-linecap:round"></path><path d="M369.1151734798492,80.11570732023193L369.1151734798492,87.02741884116547L363.1748190108465,87.51371418363102z" style="fill:rgb(255,187,187); fill-opacity: 0.4"></path><path d="M363.1748190804269,87.51371419869214L369.11517354942964,87.0274188562266L369.11517354942964,80.11570733529305z" style="fill:rgb(153,221,255); fill-opacity: 0.4"></path><path d="M485.7973866206123,52.48617457303821L441.48404411580293,42.89426742658684M441.48404411580293,42.89426742658684L369.42709617906485,48.793066623968855" style="fill:none;stroke:rgb(0,0,0);stroke-width:1;stroke-linecap:round"></path><path d="M369.1151734798492,80.11570732023193L363.1748190108465,87.51371418363102L363.1748190108465,80.60200266269747z" style="fill:rgb(255,187,187); fill-opacity: 0.4"></path><path d="M363.1748190804269,80.6020026777586L363.1748190804269,87.51371419869214L369.11517354942964,80.11570733529305z" style="fill:rgb(153,221,255); fill-opacity: 0.4"></path><path d="M356.30812423374016,50.40649562229849L356.30812423374016,122.26899282768565M363.17481441842534,87.51371359612972L363.17481441842534,80.60200186921112M363.17481441842534,87.51371359612972L380.90344461099545,87.76931788410737M363.1748190804269,80.60200267775859L363.1748190804269,87.51371419869214M363.17481441842534,80.60200186921112L380.90344461099545,87.76931788410737" style="fill:none;stroke:rgb(0,0,0);stroke-width:1;stroke-linecap:round"></path><path d="M369.1151734798492,87.02741884116547L369.1151734798492,80.11570732023193L380.9034475100347,87.76931856631762zM363.1748190108465,87.51371418363102L369.1151734798492,87.02741884116547L380.9034475100347,87.76931856631762zM369.1151734798492,80.11570732023193L363.1748190108465,80.60200266269747L380.9034475100347,87.76931856631762z" style="fill:rgb(255,187,187); fill-opacity: 0.4"></path><path d="M441.48404411580293,42.89426742658685L441.48404411580293,126.73384969671244L369.4270961790648,48.793066623968855z" style="fill:rgb(238,238,238); fill-opacity: 0.4"></path><path d="M363.1748190108465,80.60200266269747L363.1748190108465,87.51371418363102L380.9034475100347,87.76931856631762z" style="fill:rgb(255,187,187); fill-opacity: 0.4"></path><path d="M485.7973866206123,136.3257568431638L441.48404411580293,126.73384969671244L441.48404411580293,42.89426742658685zM441.48404411580293,126.73384969671244L369.4270961790648,132.63264889409444L369.4270961790648,48.793066623968855z" style="fill:rgb(238,238,238); fill-opacity: 0.4"></path><path d="M428.78804118202106,125.6056706963487L384.4746986772117,116.01376354989733M384.4746986772117,109.1020520289638L384.4746986772117,116.01376354989733M384.4746986772117,116.01376354989733L378.53434420820895,116.50005889236287M428.78804118202106,118.69395917541517L384.4746986772117,109.1020520289638M384.4746986772117,109.1020520289638L378.53434420820895,109.58834737142934" style="fill:none;stroke:rgb(0,0,0);stroke-width:1;stroke-linecap:round"></path><path d="M369.4270961790648,132.63264889409444L441.48404411580293,126.73384969671244L485.7973866206123,136.3257568431638z" style="fill:rgb(238,238,238); fill-opacity: 0.4"></path><path d="M384.4746986772116,109.1020520289638L384.4746986772116,116.01376354989733L378.53434420820895,109.58834737142934zM384.4746986772116,116.01376354989733L378.53434420820895,116.50005889236287L378.53434420820895,109.58834737142934z" style="fill:rgb(153,221,255); fill-opacity: 0.4"></path><path d="M378.53434420820895,109.58834737142934L378.53434420820895,116.50005889236287M378.53434420820895,116.50005889236287L422.84768671301833,126.09196603881423M378.53434420820895,109.58834737142934L422.84768671301833,119.1802545178807M369.42709617906485,48.793066623968855L369.42709617906485,132.63264889409444M369.42709617906485,132.63264889409444L413.74043868387423,142.22455604054582" style="fill:none;stroke:rgb(0,0,0);stroke-width:1;stroke-linecap:round"></path><path d="M485.7973866206123,52.4861745730382L485.7973866206123,136.3257568431638L441.48404411580293,42.89426742658685z" style="fill:rgb(238,238,238); fill-opacity: 0.4"></path><path d="M369.42709617906485,48.793066623968855L413.74043868387423,58.38497377042022" style="fill:none;stroke:rgb(0,0,0);stroke-width:1;stroke-linecap:round"></path><path d="M428.78804118202106,125.6056706963487L384.4746986772116,116.01376354989733L384.4746986772116,109.1020520289638zM378.53434420820895,116.50005889236287L384.4746986772116,116.01376354989733L428.78804118202106,125.6056706963487zM378.53434420820895,109.58834737142934L422.84768671301833,119.18025451788068L384.4746986772116,109.1020520289638z" style="fill:rgb(153,221,255); fill-opacity: 0.4"></path><path d="M369.4270961790648,48.793066623968855L413.7404386838741,58.38497377042021L441.48404411580293,42.89426742658685z" style="fill:rgb(238,238,238); fill-opacity: 0.4"></path><path d="M378.53434420820895,109.58834737142934L378.53434420820895,116.50005889236287L422.84768671301833,119.18025451788068z" style="fill:rgb(153,221,255); fill-opacity: 0.4"></path><path d="M485.7973866206123,52.48617457303821L485.7973866206123,136.3257568431638M485.7973866206123,136.3257568431638L413.74043868387423,142.22455604054582" style="fill:none;stroke:rgb(0,0,0);stroke-width:1;stroke-linecap:round"></path><path d="M413.7404386838741,58.38497377042021L485.7973866206123,52.4861745730382L441.48404411580293,42.89426742658685zM369.4270961790648,48.793066623968855L369.4270961790648,132.63264889409444L413.7404386838741,58.38497377042021zM413.7404386838741,142.22455604054582L369.4270961790648,132.63264889409444L485.7973866206123,136.3257568431638z" style="fill:rgb(238,238,238); fill-opacity: 0.4"></path><path d="M485.7973866206123,52.48617457303821L413.74043868387423,58.38497377042022" style="fill:none;stroke:rgb(0,0,0);stroke-width:1;stroke-linecap:round"></path><path d="M428.78804118202106,118.69395917541515L428.78804118202106,125.6056706963487L384.4746986772116,109.1020520289638zM422.84768671301833,119.18025451788068L428.78804118202106,118.69395917541515L384.4746986772116,109.1020520289638zM422.84768671301833,126.09196603881423L378.53434420820895,116.50005889236287L428.78804118202106,125.6056706963487zM378.53434420820895,116.50005889236287L422.84768671301833,126.09196603881423L422.84768671301833,119.18025451788068z" style="fill:rgb(153,221,255); fill-opacity: 0.4"></path><path d="M413.7404386838741,142.22455604054582L485.7973866206123,136.3257568431638L485.7973866206123,52.4861745730382zM369.4270961790648,132.63264889409444L413.7404386838741,142.22455604054582L413.7404386838741,58.38497377042021z" style="fill:rgb(238,238,238); fill-opacity: 0.4"></path><path d="M547.1930747868944,154.06836185123234L509.21021077818443,145.84672736973744M509.21021077818443,50.03006003487337L509.21021077818443,145.84672736973744M509.21021077818443,145.84672736973744L426.8594115175798,152.58821229925042" style="fill:none;stroke:rgb(0,0,0);stroke-width:1;stroke-linecap:round"></path><path d="M413.7404386838741,58.38497377042021L413.7404386838741,142.22455604054582L485.7973866206123,52.4861745730382z" style="fill:rgb(238,238,238); fill-opacity: 0.4"></path><path d="M428.7880298121455,118.69395767950803L428.7880298121455,125.60566920044157M428.7880298121455,125.60566920044157L422.8476767594337,126.09196442696528M428.7880298121455,125.60566920044157L440.6621710024012,129.92353100896548M428.78804118202106,118.69395917541517L428.78804118202106,125.6056706963487M428.78804118202106,125.6056706963487L422.84768671301833,126.09196603881423M428.7880298121455,118.69395767950803L422.8476767594337,119.18025290603171M428.7880298121455,118.69395767950803L440.6621710024012,129.92353100896548M428.78804118202106,118.69395917541517L422.84768671301833,119.1802545178807" style="fill:none;stroke:rgb(0,0,0);stroke-width:1;stroke-linecap:round"></path><path d="M422.84768671301833,126.09196603881423L428.78804118202106,125.6056706963487L428.78804118202106,118.69395917541515z" style="fill:rgb(153,221,255); fill-opacity: 0.4"></path><path d="M428.7880415566311,118.6939592565019L428.7880415566311,125.60567077743544L422.84768708762834,126.09196611990099z" style="fill:rgb(255,187,187); fill-opacity: 0.4"></path><path d="M547.1930747868944,58.251694516368275L509.21021077818443,50.03006003487337M509.21021077818443,50.03006003487337L426.8594115175798,56.771544964386344" style="fill:none;stroke:rgb(0,0,0);stroke-width:1;stroke-linecap:round"></path><path d="M422.84768671301833,119.18025451788068L422.84768671301833,126.09196603881423L428.78804118202106,118.69395917541515z" style="fill:rgb(153,221,255); fill-opacity: 0.4"></path><path d="M428.7880415566311,118.6939592565019L422.84768708762834,126.09196611990099L422.84768708762834,119.18025459896744z" style="fill:rgb(255,187,187); fill-opacity: 0.4"></path><path d="M422.8476767594337,126.09196442696528L422.8476767594337,119.18025290603171M422.8476767594337,126.09196442696528L440.6621710024012,129.92353100896548M422.84768671301833,119.1802545178807L422.84768671301833,126.09196603881423M422.8476767594337,119.18025290603171L440.6621710024012,129.92353100896548M413.74043868387423,58.38497377042022L413.74043868387423,142.22455604054582" style="fill:none;stroke:rgb(0,0,0);stroke-width:1;stroke-linecap:round"></path><path d="M428.7880415566311,125.60567077743544L428.7880415566311,118.6939592565019L440.66218323796875,129.92353290448176zM422.84768708762834,126.09196611990099L428.7880415566311,125.60567077743544L440.66218323796875,129.92353290448176zM428.7880415566311,118.6939592565019L422.84768708762834,119.18025459896744L440.66218323796875,129.92353290448176z" style="fill:rgb(255,187,187); fill-opacity: 0.4"></path><path d="M547.1930747868944,154.06836185123234L509.21021077818443,145.84672736973744L509.21021077818443,50.03006003487337z" style="fill:rgb(238,238,238); fill-opacity: 0.4"></path><path d="M513.9820300613385,122.17240340387455L475.99916605262854,113.95076892237964M475.99916605262854,107.0390574014461L475.99916605262854,113.95076892237964M475.99916605262854,113.95076892237964L470.0588115836259,114.43706426484519" style="fill:none;stroke:rgb(0,0,0);stroke-width:1;stroke-linecap:round"></path><path d="M422.84768708762834,119.18025459896744L422.84768708762834,126.09196611990099L440.66218323796875,129.92353290448176z" style="fill:rgb(255,187,187); fill-opacity: 0.4"></path><path d="M509.21021077818443,50.03006003487337L509.21021077818443,145.84672736973744L426.8594115175797,56.771544964386344z" style="fill:rgb(238,238,238); fill-opacity: 0.4"></path><path d="M513.9820300613385,115.260691882941L475.99916605262854,107.0390574014461M475.99916605262854,107.0390574014461L470.0588115836259,107.52535274391164" style="fill:none;stroke:rgb(0,0,0);stroke-width:1;stroke-linecap:round"></path><path d="M475.99916605262854,107.0390574014461L475.99916605262854,113.95076892237965L470.0588115836258,107.52535274391165zM475.99916605262854,113.95076892237965L470.0588115836258,114.43706426484519L470.0588115836258,107.52535274391165z" style="fill:rgb(153,221,255); fill-opacity: 0.4"></path><path d="M470.0588115836259,107.52535274391164L470.0588115836259,114.43706426484519M470.0588115836259,114.43706426484519L508.0416755923359,122.6586987463401M470.0588115836259,107.52535274391164L508.0416755923359,115.74698722540656" style="fill:none;stroke:rgb(0,0,0);stroke-width:1;stroke-linecap:round"></path><path d="M426.8594115175797,152.58821229925042L509.21021077818443,145.84672736973744L547.1930747868944,154.06836185123234zM509.21021077818443,145.84672736973744L426.8594115175797,152.58821229925042L426.8594115175797,56.771544964386344z" style="fill:rgb(238,238,238); fill-opacity: 0.4"></path><path d="M513.9820300613385,122.17240340387455L475.99916605262854,113.95076892237965L475.99916605262854,107.0390574014461zM470.0588115836258,114.43706426484519L475.99916605262854,113.95076892237965L513.9820300613385,122.17240340387455zM470.0588115836258,107.52535274391165L508.04167559233576,115.74698722540656L475.99916605262854,107.0390574014461z" style="fill:rgb(153,221,255); fill-opacity: 0.4"></path><path d="M547.1930747868944,58.251694516368275L547.1930747868944,154.06836185123234L509.21021077818443,50.03006003487337z" style="fill:rgb(238,238,238); fill-opacity: 0.4"></path><path d="M470.0588115836258,107.52535274391165L470.0588115836258,114.43706426484519L508.04167559233576,115.74698722540656z" style="fill:rgb(153,221,255); fill-opacity: 0.4"></path><path d="M426.8594115175798,56.771544964386344L426.8594115175798,152.58821229925042M426.8594115175798,152.58821229925042L464.84227552628977,160.80984678074532M547.1930747868944,58.251694516368275L547.1930747868944,154.06836185123234M547.1930747868944,154.06836185123234L464.84227552628977,160.80984678074532M426.8594115175798,56.771544964386344L464.84227552628977,64.99317944588125" style="fill:none;stroke:rgb(0,0,0);stroke-width:1;stroke-linecap:round"></path><path d="M513.9820300613385,115.260691882941L513.9820300613385,122.17240340387455L475.99916605262854,107.0390574014461z" style="fill:rgb(153,221,255); fill-opacity: 0.4"></path><path d="M426.8594115175797,56.771544964386344L464.84227552628965,64.99317944588124L509.21021077818443,50.03006003487337z" style="fill:rgb(238,238,238); fill-opacity: 0.4"></path><path d="M508.04167559233576,115.74698722540656L513.9820300613385,115.260691882941L475.99916605262854,107.0390574014461zM508.04167559233576,122.6586987463401L470.0588115836258,114.43706426484519L513.9820300613385,122.17240340387455zM470.0588115836258,114.43706426484519L508.04167559233576,122.6586987463401L508.04167559233576,115.74698722540656z" style="fill:rgb(153,221,255); fill-opacity: 0.4"></path><path d="M464.84227552628965,64.99317944588124L547.1930747868944,58.251694516368275L509.21021077818443,50.03006003487337z" style="fill:rgb(238,238,238); fill-opacity: 0.4"></path><path d="M547.1930747868944,58.251694516368275L464.84227552628977,64.99317944588125" style="fill:none;stroke:rgb(0,0,0);stroke-width:1;stroke-linecap:round"></path><path d="M464.84227552628965,160.80984678074532L426.8594115175797,152.58821229925042L547.1930747868944,154.06836185123234zM426.8594115175797,56.771544964386344L426.8594115175797,152.58821229925042L464.84227552628965,64.99317944588124zM464.84227552628965,160.80984678074532L547.1930747868944,154.06836185123234L547.1930747868944,58.251694516368275z" style="fill:rgb(238,238,238); fill-opacity: 0.4"></path><path d="M513.9820300613385,115.260691882941L513.9820300613385,122.17240340387455M513.9820300613385,122.17240340387455L508.0416755923359,122.6586987463401M513.9820532554925,115.26069669819341L513.9820532554925,122.17240821912694M513.9820532554925,122.17240821912694L508.041698432417,122.65870359057797M513.9820532554925,122.17240821912694L529.2777729691466,122.91347076082688M513.9820300613385,115.260691882941L508.0416755923359,115.74698722540656M513.9820532554925,115.26069669819341L508.041698432417,115.7469920696444M513.9820532554925,115.26069669819341L529.2777729691466,122.91347076082688" style="fill:none;stroke:rgb(0,0,0);stroke-width:1;stroke-linecap:round"></path><path d="M508.04167559233576,122.6586987463401L513.9820300613385,122.17240340387455L513.9820300613385,115.260691882941z" style="fill:rgb(153,221,255); fill-opacity: 0.4"></path><path d="M513.9820308801391,115.26069206017561L513.9820308801391,122.17240358110918L508.0416764111363,122.6586989235747z" style="fill:rgb(255,187,187); fill-opacity: 0.4"></path><path d="M508.04167559233576,115.74698722540656L508.04167559233576,122.6586987463401L513.9820300613385,115.260691882941z" style="fill:rgb(153,221,255); fill-opacity: 0.4"></path><path d="M513.9820308801391,115.26069206017561L508.0416764111363,122.6586989235747L508.0416764111363,115.74698740264118z" style="fill:rgb(255,187,187); fill-opacity: 0.4"></path><path d="M508.0416755923359,115.74698722540656L508.0416755923359,122.6586987463401M508.041698432417,122.65870359057797L508.041698432417,115.7469920696444M508.041698432417,122.65870359057797L529.2777729691466,122.91347076082688M575.4925426183836,160.19396313495795L565.4589728173512,158.0221326108106M565.4589728173512,62.20546527594652L565.4589728173512,158.0221326108106M565.4589728173512,158.0221326108106L483.1081735567466,164.76361754032357M508.041698432417,115.7469920696444L529.2777729691466,122.91347076082688" style="fill:none;stroke:rgb(0,0,0);stroke-width:1;stroke-linecap:round"></path><path d="M426.8594115175797,152.58821229925042L464.84227552628965,160.80984678074532L464.84227552628965,64.99317944588124z" style="fill:rgb(238,238,238); fill-opacity: 0.4"></path><path d="M513.9820308801391,122.17240358110918L513.9820308801391,115.26069206017561L529.2777509478658,122.91346609382364zM508.0416764111363,122.6586989235747L513.9820308801391,122.17240358110918L529.2777509478658,122.91346609382364zM513.9820308801391,115.26069206017561L508.0416764111363,115.74698740264118L529.2777509478658,122.91346609382364zM508.0416764111363,115.74698740264118L508.0416764111363,122.6586989235747L529.2777509478658,122.91346609382364z" style="fill:rgb(255,187,187); fill-opacity: 0.4"></path><path d="M575.4925426183837,160.19396313495795L565.4589728173512,158.0221326108106L565.4589728173512,62.20546527594652zM464.84227552628965,64.99317944588124L464.84227552628965,160.80984678074532L547.1930747868944,58.251694516368275z" style="fill:rgb(238,238,238); fill-opacity: 0.4"></path><path d="M575.4925426183836,64.3772958000939L565.4589728173512,62.20546527594652M565.4589728173512,62.20546527594652L483.1081735567466,68.94695020545952M575.4925426183836,64.3772958000939L575.4925426183836,160.19396313495795M575.4925426183836,160.19396313495795L493.1417433577791,166.93544806447093" style="fill:none;stroke:rgb(0,0,0);stroke-width:1;stroke-linecap:round"></path><path d="M575.4925426183837,64.37729580009389L575.4925426183837,160.19396313495795L565.4589728173512,62.20546527594652z" style="fill:rgb(238,238,238); fill-opacity: 0.4"></path><path d="M464.84227552628977,64.99317944588125L464.84227552628977,160.80984678074532" style="fill:none;stroke:rgb(0,0,0);stroke-width:1;stroke-linecap:round"></path><path d="M483.10817355674646,164.76361754032357L565.4589728173512,158.0221326108106L575.4925426183837,160.19396313495795zM565.4589728173512,62.20546527594652L565.4589728173512,158.0221326108106L483.10817355674646,68.9469502054595z" style="fill:rgb(238,238,238); fill-opacity: 0.4"></path><path d="M575.4925426183836,64.3772958000939L493.1417433577791,71.11878072960688" style="fill:none;stroke:rgb(0,0,0);stroke-width:1;stroke-linecap:round"></path><path d="M493.1417433577791,166.93544806447093L575.4925426183837,160.19396313495795L575.4925426183837,64.37729580009389zM565.4589728173512,158.0221326108106L483.10817355674646,164.76361754032357L483.10817355674646,68.9469502054595zM493.1417433577791,71.11878072960687L575.4925426183837,64.37729580009389L565.4589728173512,62.20546527594652zM493.1417433577791,166.93544806447093L483.10817355674646,164.76361754032357L575.4925426183837,160.19396313495795z" style="fill:rgb(238,238,238); fill-opacity: 0.4"></path><path d="M483.1081735567466,68.94695020545952L483.1081735567466,164.76361754032357M483.1081735567466,164.76361754032357L493.1417433577791,166.93544806447093" style="fill:none;stroke:rgb(0,0,0);stroke-width:1;stroke-linecap:round"></path><path d="M483.10817355674646,68.9469502054595L493.1417433577791,71.11878072960687L565.4589728173512,62.20546527594652zM493.1417433577791,71.11878072960687L493.1417433577791,166.93544806447093L575.4925426183837,64.37729580009389z" style="fill:rgb(238,238,238); fill-opacity: 0.4"></path><path d="M483.1081735567466,68.94695020545952L493.1417433577791,71.11878072960688" style="fill:none;stroke:rgb(0,0,0);stroke-width:1;stroke-linecap:round"></path><path d="M483.10817355674646,68.9469502054595L483.10817355674646,164.76361754032357L493.1417433577791,71.11878072960687zM483.10817355674646,164.76361754032357L493.1417433577791,166.93544806447093L493.1417433577791,71.11878072960687z" style="fill:rgb(238,238,238); fill-opacity: 0.4"></path><path d="M493.1417433577791,71.11878072960688L493.1417433577791,166.93544806447093" style="fill:none;stroke:rgb(0,0,0);stroke-width:1;stroke-linecap:round"></path></svg>